<?xml version="1.0" encoding="UTF-8"?>
<!DOCTYPE svg PUBLIC "-//W3C//DTD SVG 1.1//EN" "http://www.w3.org/Graphics/SVG/1.1/DTD/svg11.dtd">
<svg xmlns="http://www.w3.org/2000/svg" version="1.1" width="801px" height="801px" style="shape-rendering:geometricPrecision; text-rendering:geometricPrecision; image-rendering:optimizeQuality; fill-rule:evenodd; clip-rule:evenodd" xmlns:xlink="http://www.w3.org/1999/xlink">
<g><path style="opacity:0.998" fill="#1bbaa4" d="M -0.5,-0.5 C 266.5,-0.5 533.5,-0.5 800.5,-0.5C 800.5,266.5 800.5,533.5 800.5,800.5C 533.5,800.5 266.5,800.5 -0.5,800.5C -0.5,533.5 -0.5,266.5 -0.5,-0.5 Z"/></g>
<g><path style="opacity:1" fill="#fdfefe" d="M 230.5,275.5 C 239.167,275.5 247.833,275.5 256.5,275.5C 256.333,331.834 256.5,388.168 257,444.5C 263.875,479.041 284.875,497.708 320,500.5C 349.87,497.739 370.204,482.406 381,454.5C 388.709,413.555 372.875,386.388 333.5,373C 313.084,368.698 294.751,373.031 278.5,386C 272.365,391.134 266.531,396.634 261,402.5C 260.333,391.833 260.333,381.167 261,370.5C 291.099,345.62 324.266,340.787 360.5,356C 399.415,376.997 415.582,409.497 409,453.5C 400.167,490.333 377.333,513.167 340.5,522C 302.616,529.263 271.449,518.096 247,488.5C 238.748,476.756 233.415,463.756 231,449.5C 230.5,391.501 230.333,333.501 230.5,275.5 Z"/></g>
<g><path style="opacity:1" fill="#fdfefe" d="M 112.5,347.5 C 158.9,345.588 190.734,365.922 208,408.5C 209,413.167 210,417.833 211,422.5C 211.5,455.165 211.667,487.832 211.5,520.5C 202.833,520.5 194.167,520.5 185.5,520.5C 185.667,488.498 185.5,456.498 185,424.5C 174.047,385.771 148.547,368.604 108.5,373C 83.8445,379.656 67.6779,395.156 60,419.5C 53.978,454.957 67.1447,480.457 99.5,496C 121.705,503.616 142.372,500.616 161.5,487C 168,481.167 174.5,475.333 181,469.5C 181.667,480.167 181.667,490.833 181,501.5C 142.145,531.278 102.645,532.111 62.5,504C 33.0983,475.895 24.5983,442.395 37,403.5C 51.5126,370.49 76.6793,351.823 112.5,347.5 Z"/></g>
<g><path style="opacity:1" fill="#fdfefe" d="M 504.5,347.5 C 540.6,345.227 569.1,358.56 590,387.5C 596.7,398.263 601.033,409.93 603,422.5C 603.5,455.165 603.667,487.832 603.5,520.5C 594.833,520.5 586.167,520.5 577.5,520.5C 577.667,488.498 577.5,456.498 577,424.5C 566.024,385.762 540.524,368.595 500.5,373C 477.779,379.448 461.946,393.614 453,415.5C 444.758,452.512 457.591,479.346 491.5,496C 513.722,503.61 534.389,500.61 553.5,487C 560,481.167 566.5,475.333 573,469.5C 573.667,480.167 573.667,490.833 573,501.5C 534.154,531.277 494.654,532.111 454.5,504C 426.517,477.705 417.35,445.872 427,408.5C 440.713,372.731 466.546,352.398 504.5,347.5 Z"/></g>
<g><path style="opacity:1" fill="#fdfefe" d="M 665.5,350.5 C 695.5,350.5 725.5,350.5 755.5,350.5C 755.5,358.5 755.5,366.5 755.5,374.5C 726.498,374.333 697.498,374.5 668.5,375C 652.306,378.186 646.473,387.686 651,403.5C 654.887,407.528 659.387,410.694 664.5,413C 682.493,418.748 700.827,423.082 719.5,426C 737.075,429.528 751.575,438.028 763,451.5C 776.073,491.48 761.573,514.314 719.5,520C 687.168,520.5 654.835,520.667 622.5,520.5C 622.5,512.5 622.5,504.5 622.5,496.5C 656.528,496.943 690.528,496.443 724.5,495C 740.251,489.734 744.751,479.567 738,464.5C 735.463,461.628 732.63,459.128 729.5,457C 712.304,449.2 694.304,444.2 675.5,442C 659.566,439.139 645.233,432.806 632.5,423C 617.326,402.898 617.993,383.231 634.5,364C 643.734,356.71 654.068,352.21 665.5,350.5 Z"/></g>
</svg>
