<?xml version="1.0" encoding="UTF-8"?>
<!DOCTYPE svg PUBLIC "-//W3C//DTD SVG 1.1//EN" "http://www.w3.org/Graphics/SVG/1.1/DTD/svg11.dtd">
<svg xmlns="http://www.w3.org/2000/svg" version="1.1" width="1067px" height="411px" style="shape-rendering:geometricPrecision; text-rendering:geometricPrecision; image-rendering:optimizeQuality; fill-rule:evenodd; clip-rule:evenodd" xmlns:xlink="http://www.w3.org/1999/xlink">
<g><path style="opacity:0.967" fill="#356aef" d="M 202.5,-0.5 C 206.5,-0.5 210.5,-0.5 214.5,-0.5C 286.637,4.96857 342.137,37.9686 381,98.5C 384.269,111.298 379.436,118.964 366.5,121.5C 361.088,120.878 356.588,118.544 353,114.5C 316.929,59.7016 265.762,31.8682 199.5,31C 189.614,25.8657 186.781,18.0324 191,7.5C 193.961,3.33958 197.795,0.672918 202.5,-0.5 Z"/></g>
<g><path style="opacity:0.939" fill="#356aef" d="M 147.5,7.5 C 162.653,5.81907 169.153,12.4857 167,27.5C 162.39,36.5954 155.223,39.4287 145.5,36C 138.032,30.8874 135.865,24.054 139,15.5C 141.074,11.9231 143.907,9.25648 147.5,7.5 Z"/></g>
<g><path style="opacity:0.941" fill="#00ff00" d="M 103.5,26.5 C 116.952,25.123 123.452,31.123 123,44.5C 119.156,55.4609 111.656,58.9609 100.5,55C 93.8561,50.1741 91.6895,43.6741 94,35.5C 96.2942,31.4612 99.4609,28.4612 103.5,26.5 Z"/></g>
<g><path style="opacity:0.937" fill="#fe0000" d="M 64.5,56.5 C 80.1099,55.0572 86.6099,62.0572 84,77.5C 76.7344,87.8632 68.0678,89.1965 58,81.5C 51.9377,70.874 54.1043,62.5406 64.5,56.5 Z"/></g>
<g><path style="opacity:0.97" fill="#356aef" d="M 193.5,61.5 C 235.017,59.3922 271.184,72.0588 302,99.5C 307.743,117.423 301.243,125.59 282.5,124C 239.451,88.5361 193.451,84.2027 144.5,111C 99.672,143.475 84.172,186.642 98,240.5C 114.452,283.949 145.618,309.449 191.5,317C 222.558,320.323 250.225,312.323 274.5,293C 285.935,288.057 294.102,291.224 299,302.5C 300.407,310.853 297.573,317.353 290.5,322C 251.657,348.863 209.324,356.197 163.5,344C 103.157,323.196 68.9906,281.029 61,217.5C 58.495,157.333 82.6617,111.5 133.5,80C 152.391,69.7844 172.391,63.6177 193.5,61.5 Z"/></g>
<g><path style="opacity:0.969" fill="#356aef" d="M 231.5,410.5 C 214.167,410.5 196.833,410.5 179.5,410.5C 92.5632,395.597 35.0632,346.264 7,262.5C 3.6186,249.523 1.1186,236.523 -0.5,223.5C -0.5,211.5 -0.5,199.5 -0.5,187.5C 2.37907,159.343 10.5457,132.676 24,107.5C 31.3881,99.3931 39.7214,98.3931 49,104.5C 53.0721,109.132 54.4055,114.465 53,120.5C 27.4,170.303 24.7333,221.303 45,273.5C 76.9458,340.728 130.279,376.061 205,379.5C 266.87,377.32 315.704,351.153 351.5,301C 362.141,295.883 370.308,298.383 376,308.5C 376.879,313.287 376.545,317.953 375,322.5C 339.564,371.812 291.731,401.146 231.5,410.5 Z"/></g>
<g><path style="opacity:0.957" fill="#fefffe" d="M 425.5,122.5 C 435.167,122.5 444.833,122.5 454.5,122.5C 454.462,138.183 454.296,153.85 454,169.5C 463.507,162.602 474.007,160.768 485.5,164C 497.541,168.718 504.374,177.551 506,190.5C 506.5,212.831 506.667,235.164 506.5,257.5C 497.167,257.5 487.833,257.5 478.5,257.5C 478.667,237.831 478.5,218.164 478,198.5C 474.437,189.407 468.27,186.907 459.5,191C 457.383,192.731 455.883,194.898 455,197.5C 454.5,217.497 454.333,237.497 454.5,257.5C 444.833,257.5 435.167,257.5 425.5,257.5C 425.5,212.5 425.5,167.5 425.5,122.5 Z"/></g>
<g><path style="opacity:0.957" fill="#fefffe" d="M 607.5,122.5 C 616.833,122.5 626.167,122.5 635.5,122.5C 635.5,132.167 635.5,141.833 635.5,151.5C 626.167,151.5 616.833,151.5 607.5,151.5C 607.5,141.833 607.5,132.167 607.5,122.5 Z"/></g>
<g><path style="opacity:0.897" fill="#fefffe" d="M 749.5,133.5 C 787.573,133.098 811.739,151.098 822,187.5C 824.25,200.911 823.917,214.245 821,227.5C 814.761,243.206 803.928,247.706 788.5,241C 784.619,238.072 782.119,234.239 781,229.5C 773.617,239.943 763.451,245.277 750.5,245.5C 726.554,242.887 713.887,229.554 712.5,205.5C 713.767,181.235 726.433,168.235 750.5,166.5C 762.754,166.212 772.588,170.878 780,180.5C 780.499,176.179 780.666,171.846 780.5,167.5C 782.833,167.5 785.167,167.5 787.5,167.5C 787.089,187.536 787.589,207.536 789,227.5C 794.248,237.683 801.248,239.016 810,231.5C 819.344,206.908 816.344,183.908 801,162.5C 785.571,146.467 766.737,139.967 744.5,143C 706.122,151.899 688.288,176.066 691,215.5C 698.36,249.355 719.36,267.355 754,269.5C 761.593,269.106 769.093,268.106 776.5,266.5C 776.813,269.247 776.48,271.914 775.5,274.5C 743.941,282.659 717.441,274.659 696,250.5C 680.373,227.437 677.373,202.771 687,176.5C 699.741,150.381 720.574,136.048 749.5,133.5 Z M 743.5,174.5 C 766.27,172.384 778.603,182.717 780.5,205.5C 778.581,229.265 765.914,239.432 742.5,236C 724.734,228.638 717.901,215.471 722,196.5C 725.376,185.292 732.543,177.958 743.5,174.5 Z"/></g>
<g><path style="opacity:0.901" fill="#fefffe" d="M 865.5,150.5 C 869.167,150.5 872.833,150.5 876.5,150.5C 876.333,165.17 876.5,179.837 877,194.5C 890.867,180.301 904.367,165.801 917.5,151C 921.871,150.172 926.205,150.339 930.5,151.5C 916.005,167.828 901.338,183.995 886.5,200C 902.281,218.389 917.947,236.889 933.5,255.5C 929.205,256.661 924.871,256.828 920.5,256C 906,239.5 891.5,223 877,206.5C 876.5,223.163 876.333,239.83 876.5,256.5C 872.833,256.5 869.167,256.5 865.5,256.5C 865.5,221.167 865.5,185.833 865.5,150.5 Z"/></g>
<g><path style="opacity:0.88" fill="#fefffe" d="M 960.5,150.5 C 964.167,150.5 967.833,150.5 971.5,150.5C 971.5,185.833 971.5,221.167 971.5,256.5C 967.833,256.5 964.167,256.5 960.5,256.5C 960.5,221.167 960.5,185.833 960.5,150.5 Z"/></g>
<g><path style="opacity:0.911" fill="#fefffe" d="M 1066.5,150.5 C 1066.5,153.833 1066.5,157.167 1066.5,160.5C 1057.5,160.5 1048.5,160.5 1039.5,160.5C 1039.5,192.5 1039.5,224.5 1039.5,256.5C 1035.83,256.5 1032.17,256.5 1028.5,256.5C 1028.5,224.5 1028.5,192.5 1028.5,160.5C 1019.17,160.5 1009.83,160.5 1000.5,160.5C 1000.5,157.167 1000.5,153.833 1000.5,150.5C 1022.5,150.5 1044.5,150.5 1066.5,150.5 Z"/></g>
<g><path style="opacity:0.959" fill="#fefffe" d="M 225.5,163.5 C 232.858,163.418 240.191,163.752 247.5,164.5C 247.5,173.167 247.5,181.833 247.5,190.5C 238.554,188.611 229.887,189.444 221.5,193C 211.177,201.954 209.344,212.454 216,224.5C 219.421,228.257 223.588,230.757 228.5,232C 234.749,232.809 240.916,232.642 247,231.5C 247.832,240.186 247.665,248.853 246.5,257.5C 225.574,262.133 207.741,256.799 193,241.5C 179.547,219.41 180.547,198.077 196,177.5C 204.567,169.965 214.4,165.298 225.5,163.5 Z"/></g>
<g><path style="opacity:0.963" fill="#fefffe" d="M 565.5,163.5 C 572.858,163.418 580.191,163.752 587.5,164.5C 587.5,173.167 587.5,181.833 587.5,190.5C 579.361,188.831 571.361,189.331 563.5,192C 552.36,199.763 549.527,209.93 555,222.5C 558.365,227.186 562.865,230.353 568.5,232C 574.749,232.809 580.916,232.642 587,231.5C 587.832,240.186 587.665,248.853 586.5,257.5C 566.76,261.859 549.593,257.192 535,243.5C 520.828,223.291 520.161,202.624 533,181.5C 541.669,171.419 552.502,165.419 565.5,163.5 Z"/></g>
<g><path style="opacity:0.957" fill="#fefffe" d="M 258.5,164.5 C 268.749,164.181 278.916,164.514 289,165.5C 294.616,183.016 300.616,200.35 307,217.5C 312.735,200.13 318.568,182.796 324.5,165.5C 334.144,164.502 343.81,164.168 353.5,164.5C 342.905,195.284 331.905,225.95 320.5,256.5C 310.833,257.833 301.167,257.833 291.5,256.5C 280.09,225.933 269.09,195.266 258.5,164.5 Z"/></g>
<g><path style="opacity:0.969" fill="#fefffe" d="M 607.5,164.5 C 616.833,164.5 626.167,164.5 635.5,164.5C 635.5,195.5 635.5,226.5 635.5,257.5C 626.167,257.5 616.833,257.5 607.5,257.5C 607.5,226.5 607.5,195.5 607.5,164.5 Z"/></g>
<g><path style="opacity:0.938" fill="#fefffe" d="M 376.5,170.5 C 393.109,169.706 399.276,177.373 395,193.5C 385.524,203.101 376.524,202.768 368,192.5C 364.665,182.657 367.499,175.324 376.5,170.5 Z"/></g>
<g><path style="opacity:0.941" fill="#fefffe" d="M 376.5,227.5 C 394.293,226.748 400.126,234.748 394,251.5C 386.655,258.88 378.822,259.38 370.5,253C 363.809,242.272 365.809,233.772 376.5,227.5 Z"/></g>
</svg>
