<?xml version="1.0" encoding="UTF-8"?>
<!DOCTYPE svg PUBLIC "-//W3C//DTD SVG 1.1//EN" "http://www.w3.org/Graphics/SVG/1.1/DTD/svg11.dtd">
<svg xmlns="http://www.w3.org/2000/svg" version="1.1" width="200px" height="200px" style="shape-rendering:geometricPrecision; text-rendering:geometricPrecision; image-rendering:optimizeQuality; fill-rule:evenodd; clip-rule:evenodd" xmlns:xlink="http://www.w3.org/1999/xlink">
<g><path style="opacity:0.907" fill="#000000" d="M -0.5,73.5 C 31.5,73.5 63.5,73.5 95.5,73.5C 95.5,77.5 95.5,81.5 95.5,85.5C 63.5,85.5 31.5,85.5 -0.5,85.5C -0.5,81.5 -0.5,77.5 -0.5,73.5 Z"/></g>
<g><path style="opacity:0.905" fill="#000000" d="M 103.5,73.5 C 118.833,73.5 134.167,73.5 149.5,73.5C 149.5,77.5 149.5,81.5 149.5,85.5C 138.167,85.5 126.833,85.5 115.5,85.5C 115.5,94.8333 115.5,104.167 115.5,113.5C 126.833,113.5 138.167,113.5 149.5,113.5C 149.5,117.5 149.5,121.5 149.5,125.5C 134.167,125.5 118.833,125.5 103.5,125.5C 103.5,118.833 103.5,112.167 103.5,105.5C 88.5,105.5 73.5,105.5 58.5,105.5C 58.5,108.167 58.5,110.833 58.5,113.5C 70.8333,113.5 83.1667,113.5 95.5,113.5C 95.5,117.5 95.5,121.5 95.5,125.5C 79.1667,125.5 62.8333,125.5 46.5,125.5C 46.5,114.833 46.5,104.167 46.5,93.5C 65.5,93.5 84.5,93.5 103.5,93.5C 103.5,86.8333 103.5,80.1667 103.5,73.5 Z"/></g>
<g><path style="opacity:0.932" fill="#000101" d="M 199.5,92.5 C 199.5,97.1667 199.5,101.833 199.5,106.5C 191.613,124.081 178.613,129.247 160.5,122C 149.165,113.661 145.665,102.828 150,89.5C 159.171,73.6631 172.005,69.8297 188.5,78C 193.532,81.8568 197.199,86.6901 199.5,92.5 Z"/></g>
<g><path style="opacity:1" fill="#00937f" d="M 170.5,84.5 C 186.495,85.4885 191.662,93.4885 186,108.5C 177.667,116.5 169.333,116.5 161,108.5C 155.615,96.9548 158.781,88.9548 170.5,84.5 Z"/></g>
<g><path style="opacity:0.88" fill="#000000" d="M 19.5,93.5 C 23.5,93.5 27.5,93.5 31.5,93.5C 31.5,104.167 31.5,114.833 31.5,125.5C 27.5,125.5 23.5,125.5 19.5,125.5C 19.5,114.833 19.5,104.167 19.5,93.5 Z"/></g>
</svg>
