<?xml version="1.0" encoding="UTF-8"?>
<!DOCTYPE svg PUBLIC "-//W3C//DTD SVG 1.1//EN" "http://www.w3.org/Graphics/SVG/1.1/DTD/svg11.dtd">
<svg xmlns="http://www.w3.org/2000/svg" version="1.1" width="250px" height="105px" style="shape-rendering:geometricPrecision; text-rendering:geometricPrecision; image-rendering:optimizeQuality; fill-rule:evenodd; clip-rule:evenodd" xmlns:xlink="http://www.w3.org/1999/xlink">
<g><path style="opacity:1" fill="#89c3e1" d="M 171.5,-0.5 C 180.833,-0.5 190.167,-0.5 199.5,-0.5C 204.034,1.0529 208.701,2.5529 213.5,4C 217.408,5.54331 220.742,7.70998 223.5,10.5C 222.127,10.3433 220.793,10.51 219.5,11C 237.4,25.0321 243.567,43.1988 238,65.5C 234.067,77.9331 226.567,87.5998 215.5,94.5C 216.325,95.3857 217.325,95.719 218.5,95.5C 208.569,101.3 197.736,103.967 186,103.5C 169.492,104.388 155.492,99.0542 144,87.5C 141.668,84.1781 140.502,80.5115 140.5,76.5C 145.209,76.6719 148.875,78.8386 151.5,83C 155.919,84.9363 159.919,87.4363 163.5,90.5C 169.01,93.4714 175.01,94.8047 181.5,94.5C 206.872,93.9344 223.039,81.601 230,57.5C 231.068,32.4096 219.568,16.4096 195.5,9.5C 191.258,8.03241 186.758,7.36575 182,7.5C 179.167,7.66667 176.333,7.83333 173.5,8C 172.584,8.27842 171.918,8.77842 171.5,9.5C 161.303,12.937 152.303,18.437 144.5,26C 142.393,26.8542 141.059,26.1875 140.5,24C 143.67,14.8277 149.67,8.16105 158.5,4C 162.893,2.32866 167.226,0.828658 171.5,-0.5 Z"/></g>
<g><path style="opacity:1" fill="#deeef6" d="M 195.5,9.5 C 187.5,8.16667 179.5,8.16667 171.5,9.5C 171.918,8.77842 172.584,8.27842 173.5,8C 176.333,7.83333 179.167,7.66667 182,7.5C 186.758,7.36575 191.258,8.03241 195.5,9.5 Z"/></g>
<g><path style="opacity:1" fill="#7caec7" d="M 223.5,10.5 C 232.714,15.3782 239.047,22.7115 242.5,32.5C 244.8,44.0558 245.134,55.7225 243.5,67.5C 239.013,80.3173 230.68,89.6506 218.5,95.5C 217.325,95.719 216.325,95.3857 215.5,94.5C 226.567,87.5998 234.067,77.9331 238,65.5C 243.567,43.1988 237.4,25.0321 219.5,11C 220.793,10.51 222.127,10.3433 223.5,10.5 Z"/></g>
<g><path style="opacity:1" fill="#d8d8d8" d="M 157.5,29.5 C 157.5,29.8333 157.5,30.1667 157.5,30.5C 155.784,30.6287 154.117,30.962 152.5,31.5C 153.635,29.7868 155.302,29.1201 157.5,29.5 Z"/></g>
<g><path style="opacity:1" fill="#070707" d="M 139.5,37.5 C 136.877,46.1729 136.877,54.8396 139.5,63.5C 139.5,63.8333 139.5,64.1667 139.5,64.5C 140.223,74.447 138.056,75.1137 133,66.5C 129.065,57.3023 128.565,47.969 131.5,38.5C 131.5,38.1667 131.5,37.8333 131.5,37.5C 132.906,37.0269 133.573,36.0269 133.5,34.5C 134.401,33.7095 135.068,32.7095 135.5,31.5C 136.708,30.7659 138.041,30.4326 139.5,30.5C 139.5,32.8333 139.5,35.1667 139.5,37.5 Z"/></g>
<g><path style="opacity:1" fill="#a8a8a8" d="M 139.5,37.5 C 139.5,35.1667 139.5,32.8333 139.5,30.5C 138.041,30.4326 136.708,30.7659 135.5,31.5C 136.558,28.7582 138.391,28.0915 141,29.5C 141.433,32.4194 140.933,35.086 139.5,37.5 Z"/></g>
<g><path style="opacity:1" fill="#101010" d="M 157.5,30.5 C 163.5,30.5 169.5,30.5 175.5,30.5C 175.5,32.5 175.5,34.5 175.5,36.5C 169.974,36.1786 164.64,36.5119 159.5,37.5C 157.167,37.8333 155.833,39.1667 155.5,41.5C 153.72,42.9899 153.054,44.9899 153.5,47.5C 161.167,47.5 168.833,47.5 176.5,47.5C 176.5,49.8333 176.5,52.1667 176.5,54.5C 168.833,54.5 161.167,54.5 153.5,54.5C 153.171,57.2282 153.837,59.5615 155.5,61.5C 156.122,63.335 157.456,64.5017 159.5,65C 165.157,65.4994 170.824,65.6661 176.5,65.5C 176.5,68.1667 176.5,70.8333 176.5,73.5C 169.412,73.7955 162.412,73.4621 155.5,72.5C 154.101,71.1103 152.434,70.1103 150.5,69.5C 149.5,69.1667 148.833,68.5 148.5,67.5C 147.492,65.4561 146.492,63.4561 145.5,61.5C 144.596,60.791 144.263,59.791 144.5,58.5C 144.375,52.7969 144.708,47.1302 145.5,41.5C 145.5,41.1667 145.5,40.8333 145.5,40.5C 146.674,39.4863 147.34,38.153 147.5,36.5C 149.5,35.1667 151.167,33.5 152.5,31.5C 154.117,30.962 155.784,30.6287 157.5,30.5 Z"/></g>
<g><path style="opacity:1" fill="#0e0e0e" d="M 189.5,29.5 C 190.167,29.5 190.833,29.5 191.5,29.5C 199.167,29.5 206.833,29.5 214.5,29.5C 214.5,32.1667 214.5,34.8333 214.5,37.5C 206.493,37.3336 198.493,37.5003 190.5,38C 189.944,38.3826 189.611,38.8826 189.5,39.5C 189.167,40.8333 188.833,42.1667 188.5,43.5C 188.285,45.1788 188.952,46.1788 190.5,46.5C 190.611,47.1174 190.944,47.6174 191.5,48C 198.158,48.4996 204.825,48.6663 211.5,48.5C 211.973,49.9063 212.973,50.573 214.5,50.5C 214.66,52.153 215.326,53.4863 216.5,54.5C 217.747,57.8672 217.747,61.2005 216.5,64.5C 215.326,65.5137 214.66,66.847 214.5,68.5C 213.5,68.8333 212.833,69.5 212.5,70.5C 202.301,72.3681 191.968,73.0348 181.5,72.5C 181.5,70.1667 181.5,67.8333 181.5,65.5C 189.019,65.825 196.352,65.4916 203.5,64.5C 206.734,64.7634 208.068,63.2634 207.5,60C 207.95,57.3743 206.95,55.8743 204.5,55.5C 197.656,54.6805 190.656,54.0139 183.5,53.5C 182.488,52.1283 181.488,50.795 180.5,49.5C 179.259,44.8433 179.259,40.1767 180.5,35.5C 183.029,32.6104 186.029,30.6104 189.5,29.5 Z"/></g>
<g><path style="opacity:1" fill="#d1d1d1" d="M 135.5,31.5 C 135.068,32.7095 134.401,33.7095 133.5,34.5C 133.285,32.8212 133.952,31.8212 135.5,31.5 Z"/></g>
<g><path style="opacity:1" fill="#b3b3b3" d="M 152.5,31.5 C 151.167,33.5 149.5,35.1667 147.5,36.5C 148.167,33.8333 149.833,32.1667 152.5,31.5 Z"/></g>
<g><path style="opacity:1" fill="#aaaaaa" d="M 189.5,29.5 C 186.029,30.6104 183.029,32.6104 180.5,35.5C 181.891,31.1121 184.891,29.1121 189.5,29.5 Z"/></g>
<g><path style="opacity:1" fill="#eeeeee" d="M 40.5,35.5 C 39.5,35.5 38.5,35.5 37.5,35.5C 37.5,39.1667 37.5,42.8333 37.5,46.5C 36.5166,42.7016 36.1832,38.7016 36.5,34.5C 38.099,34.2322 39.4324,34.5655 40.5,35.5 Z"/></g>
<g><path style="opacity:1" fill="#c8c8c8" d="M 82.5,38.5 C 82.5,38.8333 82.5,39.1667 82.5,39.5C 82.2172,40.2891 81.7172,40.9558 81,41.5C 80.8078,39.4233 80.3078,37.4233 79.5,35.5C 78.5108,39.1073 78.1774,42.774 78.5,46.5C 75.728,47.7671 73.0613,47.7671 70.5,46.5C 68.744,45.4479 68.0773,43.7812 68.5,41.5C 67.5,41.5 66.5,41.5 65.5,41.5C 66.9002,40.8999 67.9002,39.8999 68.5,38.5C 71.3351,37.2138 74.1684,37.2138 77,38.5C 77.49,37.2068 77.6567,35.8734 77.5,34.5C 78.8333,34.5 80.1667,34.5 81.5,34.5C 81.2322,36.099 81.5655,37.4324 82.5,38.5 Z"/></g>
<g><path style="opacity:1" fill="#5e5e5e" d="M 40.5,35.5 C 40.5,39.1667 40.5,42.8333 40.5,46.5C 39.5,47.8333 38.5,47.8333 37.5,46.5C 37.5,42.8333 37.5,39.1667 37.5,35.5C 38.5,35.5 39.5,35.5 40.5,35.5 Z"/></g>
<g><path style="opacity:1" fill="#b9b9b9" d="M 133.5,34.5 C 133.573,36.0269 132.906,37.0269 131.5,37.5C 131.427,35.9731 132.094,34.9731 133.5,34.5 Z"/></g>
<g><path style="opacity:1" fill="#6f6f6f" d="M 163.5,37.5 C 162.167,37.5 160.833,37.5 159.5,37.5C 164.64,36.5119 169.974,36.1786 175.5,36.5C 175.5,34.5 175.5,32.5 175.5,30.5C 169.5,30.5 163.5,30.5 157.5,30.5C 157.5,30.1667 157.5,29.8333 157.5,29.5C 163.797,28.6803 170.131,28.347 176.5,28.5C 176.5,31.5 176.5,34.5 176.5,37.5C 172.167,37.5 167.833,37.5 163.5,37.5 Z"/></g>
<g><path style="opacity:1" fill="#8f8f8f" d="M 99.5,39.5 C 99.719,40.675 99.3857,41.675 98.5,42.5C 96.5793,37.5084 95.5793,37.5084 95.5,42.5C 94.5655,43.5676 94.2322,44.901 94.5,46.5C 93.1667,46.5 91.8333,46.5 90.5,46.5C 90.5,45.8333 90.5,45.1667 90.5,44.5C 91.8333,42.8333 91.8333,41.1667 90.5,39.5C 89.3129,38.4664 88.4796,37.133 88,35.5C 87.5172,36.448 87.3505,37.448 87.5,38.5C 85.7085,38.366 84.0418,38.6993 82.5,39.5C 82.5,39.1667 82.5,38.8333 82.5,38.5C 83.5676,37.5655 84.901,37.2322 86.5,37.5C 86.5,36.5 86.5,35.5 86.5,34.5C 87.5,34.5 88.5,34.5 89.5,34.5C 89.8333,38.5 90.1667,38.5 90.5,34.5C 91.8333,34.5 93.1667,34.5 94.5,34.5C 94.5,35.5 94.5,36.5 94.5,37.5C 96.5138,37.3915 98.1805,38.0582 99.5,39.5 Z"/></g>
<g><path style="opacity:1" fill="#efefef" d="M 191.5,29.5 C 199.316,28.5076 207.316,28.1743 215.5,28.5C 215.5,31.8333 215.5,35.1667 215.5,38.5C 206.779,38.2246 198.113,38.5579 189.5,39.5C 189.611,38.8826 189.944,38.3826 190.5,38C 198.493,37.5003 206.493,37.3336 214.5,37.5C 214.5,34.8333 214.5,32.1667 214.5,29.5C 206.833,29.5 199.167,29.5 191.5,29.5 Z"/></g>
<g><path style="opacity:1" fill="#333333" d="M 48.5,46.5 C 46.6921,45.0821 46.0254,43.0821 46.5,40.5C 45.5,40.5 44.5,40.5 43.5,40.5C 43.5,42.5 43.5,44.5 43.5,46.5C 42.8333,47.8333 42.1667,47.8333 41.5,46.5C 41.5,43.8333 41.5,41.1667 41.5,38.5C 47.9049,37.4062 50.2382,40.0729 48.5,46.5 Z"/></g>
<g><path style="opacity:1" fill="#c6c6c6" d="M 68.5,38.5 C 66.8333,38.5 65.1667,38.5 63.5,38.5C 63.5,41.1667 63.5,43.8333 63.5,46.5C 61.059,47.7563 58.7257,47.7563 56.5,46.5C 55.8333,46.5 55.1667,46.5 54.5,46.5C 54.5,45.8333 54.5,45.1667 54.5,44.5C 54.8432,42.5168 54.1765,41.1834 52.5,40.5C 52.9175,39.7784 53.5842,39.2784 54.5,39C 53.2298,38.1004 52.2298,36.9337 51.5,35.5C 50.7379,36.6283 50.0712,37.7949 49.5,39C 50.2202,41.4908 50.8869,43.9908 51.5,46.5C 50.5,46.5 49.5,46.5 48.5,46.5C 50.2382,40.0729 47.9049,37.4062 41.5,38.5C 41.5,41.1667 41.5,43.8333 41.5,46.5C 41.1667,46.5 40.8333,46.5 40.5,46.5C 40.5,42.8333 40.5,39.1667 40.5,35.5C 43.1445,37.2419 46.1445,37.9086 49.5,37.5C 49.5,36.5 49.5,35.5 49.5,34.5C 50.8333,34.5 52.1667,34.5 53.5,34.5C 53.5,35.5 53.5,36.5 53.5,37.5C 58.6946,37.1795 63.6946,37.5128 68.5,38.5 Z"/></g>
<g><path style="opacity:1" fill="#c8c8c8" d="M 147.5,36.5 C 147.34,38.153 146.674,39.4863 145.5,40.5C 145.229,38.6203 145.896,37.287 147.5,36.5 Z"/></g>
<g><path style="opacity:1" fill="#d4d4d4" d="M 159.5,37.5 C 160.833,37.5 162.167,37.5 163.5,37.5C 160.631,38.2679 157.964,39.6012 155.5,41.5C 155.833,39.1667 157.167,37.8333 159.5,37.5 Z"/></g>
<g><path style="opacity:1" fill="#181818" d="M 70.5,46.5 C 69.1667,44.8333 69.1667,43.1667 70.5,41.5C 75.797,40.9675 75.797,40.1342 70.5,39C 72.1667,38.3333 73.8333,38.3333 75.5,39C 76.435,41.3806 76.7683,43.8806 76.5,46.5C 74.5,46.5 72.5,46.5 70.5,46.5 Z"/></g>
<g><path style="opacity:1" fill="#393939" d="M 52.5,40.5 C 52.1568,42.4832 52.8235,43.8166 54.5,44.5C 54.5,45.1667 54.5,45.8333 54.5,46.5C 53.5,47.8333 52.5,47.8333 51.5,46.5C 50.8869,43.9908 50.2202,41.4908 49.5,39C 50.0712,37.7949 50.7379,36.6283 51.5,35.5C 52.2298,36.9337 53.2298,38.1004 54.5,39C 53.5842,39.2784 52.9175,39.7784 52.5,40.5 Z"/></g>
<g><path style="opacity:1" fill="#f5f5f5" d="M 52.5,40.5 C 54.1765,41.1834 54.8432,42.5168 54.5,44.5C 52.8235,43.8166 52.1568,42.4832 52.5,40.5 Z"/></g>
<g><path style="opacity:1" fill="#3e3e3e" d="M 68.5,38.5 C 67.9002,39.8999 66.9002,40.8999 65.5,41.5C 65.7989,43.604 65.4656,45.604 64.5,47.5C 63.8933,47.3764 63.56,47.0431 63.5,46.5C 63.5,43.8333 63.5,41.1667 63.5,38.5C 65.1667,38.5 66.8333,38.5 68.5,38.5 Z"/></g>
<g><path style="opacity:1" fill="#ebebeb" d="M 89.5,40.5 C 89.5,39.8333 89.8333,39.5 90.5,39.5C 91.8333,41.1667 91.8333,42.8333 90.5,44.5C 89.8333,44.5 89.5,44.1667 89.5,43.5C 90.8333,42.5 90.8333,41.5 89.5,40.5 Z"/></g>
<g><path style="opacity:1" fill="#dedede" d="M 48.5,46.5 C 47.791,47.404 46.791,47.7373 45.5,47.5C 45.6621,45.4727 45.4955,43.4727 45,41.5C 44.8019,43.3817 44.3019,45.0484 43.5,46.5C 43.5,44.5 43.5,42.5 43.5,40.5C 44.5,40.5 45.5,40.5 46.5,40.5C 46.0254,43.0821 46.6921,45.0821 48.5,46.5 Z"/></g>
<g><path style="opacity:1" fill="#212121" d="M 56.5,46.5 C 55.612,43.9455 55.2786,41.2788 55.5,38.5C 57.5,38.5 59.5,38.5 61.5,38.5C 62.2096,41.8595 60.8762,43.6929 57.5,44C 62.5945,45.4578 62.2611,46.2912 56.5,46.5 Z"/></g>
<g><path style="opacity:1" fill="#9d9d9d" d="M 57.5,39.5 C 58.675,39.281 59.675,39.6143 60.5,40.5C 58.9483,41.7979 57.9483,41.4646 57.5,39.5 Z"/></g>
<g><path style="opacity:1" fill="#292929" d="M 82.5,39.5 C 84.0418,38.6993 85.7085,38.366 87.5,38.5C 87.3505,37.448 87.5172,36.448 88,35.5C 88.4796,37.133 89.3129,38.4664 90.5,39.5C 89.8333,39.5 89.5,39.8333 89.5,40.5C 89.5,41.5 89.5,42.5 89.5,43.5C 89.5,44.1667 89.8333,44.5 90.5,44.5C 90.5,45.1667 90.5,45.8333 90.5,46.5C 89.5041,46.5858 88.6708,46.2524 88,45.5C 87.5045,43.5273 87.3379,41.5273 87.5,39.5C 86.209,39.2627 85.209,39.596 84.5,40.5C 83.5222,40.811 82.8555,41.4777 82.5,42.5C 86.3163,47.1805 85.8163,47.5139 81,43.5C 80.5172,44.448 80.3505,45.448 80.5,46.5C 79.8333,47.8333 79.1667,47.8333 78.5,46.5C 78.1774,42.774 78.5108,39.1073 79.5,35.5C 80.3078,37.4233 80.8078,39.4233 81,41.5C 81.7172,40.9558 82.2172,40.2891 82.5,39.5 Z M 84.5,40.5 C 86.3442,41.2039 86.8442,42.5372 86,44.5C 84.8118,43.4366 84.3118,42.1033 84.5,40.5 Z"/></g>
<g><path style="opacity:1" fill="#d4d4d4" d="M 180.5,35.5 C 179.259,40.1767 179.259,44.8433 180.5,49.5C 179.003,47.7103 178.336,45.5437 178.5,43C 178.408,40.1789 179.074,37.6789 180.5,35.5 Z"/></g>
<g><path style="opacity:1" fill="#868686" d="M 71.5,42.5 C 72.9778,42.238 74.3112,42.5713 75.5,43.5C 74.8333,43.8333 74.1667,44.1667 73.5,44.5C 72.2867,44.2528 71.62,43.5862 71.5,42.5 Z"/></g>
<g><path style="opacity:1" fill="#2b2b2b" d="M 99.5,39.5 C 100.423,38.6971 101.423,38.5304 102.5,39C 101.663,40.0113 101.33,41.1779 101.5,42.5C 100.326,43.5137 99.6596,44.847 99.5,46.5C 98.8333,47.8333 98.1667,47.8333 97.5,46.5C 97.3404,44.847 96.6737,43.5137 95.5,42.5C 95.5793,37.5084 96.5793,37.5084 98.5,42.5C 99.3857,41.675 99.719,40.675 99.5,39.5 Z"/></g>
<g><path style="opacity:1" fill="#bbbbbb" d="M 104.5,46.5 C 103.022,45.5525 102.022,44.2191 101.5,42.5C 101.33,41.1779 101.663,40.0113 102.5,39C 101.423,38.5304 100.423,38.6971 99.5,39.5C 102.684,37.5864 106.351,36.9197 110.5,37.5C 110.5,40.8333 110.5,44.1667 110.5,47.5C 108.265,47.7947 106.265,47.4614 104.5,46.5 Z"/></g>
<g><path style="opacity:1" fill="#181818" d="M 104.5,46.5 C 103.612,43.9455 103.279,41.2788 103.5,38.5C 105.5,38.5 107.5,38.5 109.5,38.5C 109.5,39.8333 109.5,41.1667 109.5,42.5C 102.951,42.9071 102.951,43.9071 109.5,45.5C 107.955,46.4519 106.288,46.7852 104.5,46.5 Z"/></g>
<g><path style="opacity:1" fill="#a3a3a3" d="M 105.5,39.5 C 106.675,39.281 107.675,39.6143 108.5,40.5C 106.948,41.7979 105.948,41.4646 105.5,39.5 Z"/></g>
<g><path style="opacity:1" fill="#d1d1d1" d="M 188.5,43.5 C 189.401,44.2905 190.068,45.2905 190.5,46.5C 188.952,46.1788 188.285,45.1788 188.5,43.5 Z"/></g>
<g><path style="opacity:1" fill="#cfcfcf" d="M 90.5,46.5 C 91.8333,46.5 93.1667,46.5 94.5,46.5C 89.8134,47.1269 85.1467,47.1269 80.5,46.5C 80.3505,45.448 80.5172,44.448 81,43.5C 85.8163,47.5139 86.3163,47.1805 82.5,42.5C 82.8555,41.4777 83.5222,40.811 84.5,40.5C 85.209,39.596 86.209,39.2627 87.5,39.5C 87.3379,41.5273 87.5045,43.5273 88,45.5C 88.6708,46.2524 89.5041,46.5858 90.5,46.5 Z M 84.5,40.5 C 84.3118,42.1033 84.8118,43.4366 86,44.5C 86.8442,42.5372 86.3442,41.2039 84.5,40.5 Z"/></g>
<g><path style="opacity:1" fill="#bababa" d="M 95.5,42.5 C 96.6737,43.5137 97.3404,44.847 97.5,46.5C 95.8958,45.713 95.2291,44.3797 95.5,42.5 Z"/></g>
<g><path style="opacity:1" fill="#d3d3d3" d="M 101.5,42.5 C 101.843,44.4832 101.176,45.8166 99.5,46.5C 99.6596,44.847 100.326,43.5137 101.5,42.5 Z"/></g>
<g><path style="opacity:1" fill="#a5a5a5" d="M 155.5,41.5 C 155.5,43.1667 155.5,44.8333 155.5,46.5C 162.687,46.1755 169.687,46.5088 176.5,47.5C 168.833,47.5 161.167,47.5 153.5,47.5C 153.054,44.9899 153.72,42.9899 155.5,41.5 Z"/></g>
<g><path style="opacity:1" fill="#797979" d="M 190.5,46.5 C 196.509,46.3338 202.509,46.5005 208.5,47C 209.737,47.2321 210.737,47.7321 211.5,48.5C 204.825,48.6663 198.158,48.4996 191.5,48C 190.944,47.6174 190.611,47.1174 190.5,46.5 Z"/></g>
<g><path style="opacity:1" fill="#c4c4c4" d="M 211.5,48.5 C 213.027,48.427 214.027,49.0937 214.5,50.5C 212.973,50.573 211.973,49.9063 211.5,48.5 Z"/></g>
<g><path style="opacity:1" fill="#bcd4e1" d="M 242.5,32.5 C 245.372,38.1938 246.706,44.3605 246.5,51C 246.613,56.8374 245.613,62.3374 243.5,67.5C 245.134,55.7225 244.8,44.0558 242.5,32.5 Z"/></g>
<g><path style="opacity:1" fill="#c2c2c2" d="M 131.5,38.5 C 128.565,47.969 129.065,57.3023 133,66.5C 138.056,75.1137 140.223,74.447 139.5,64.5C 140.933,66.914 141.433,69.5806 141,72.5C 139.612,73.5536 138.112,73.7203 136.5,73C 128.965,64.5545 126.465,54.7211 129,43.5C 129.374,41.5087 130.207,39.842 131.5,38.5 Z"/></g>
<g><path style="opacity:1" fill="#777777" d="M 120.5,50.5 C 88.0043,51.4983 55.3376,51.8316 22.5,51.5C 50.1471,50.8027 79.1471,50.136 109.5,49.5C 113.118,50.3464 116.785,50.6797 120.5,50.5 Z"/></g>
<g><path style="opacity:1" fill="#d5d5d5" d="M 145.5,41.5 C 144.708,47.1302 144.375,52.7969 144.5,58.5C 143.837,56.3587 143.503,54.0254 143.5,51.5C 143.315,47.8589 143.981,44.5256 145.5,41.5 Z"/></g>
<g><path style="opacity:1" fill="#efefef" d="M 120.5,50.5 C 122.379,50.3932 122.712,50.8932 121.5,52C 107.661,52.1689 93.9939,52.6689 80.5,53.5C 79.8333,53.5 79.1667,53.5 78.5,53.5C 69.1667,52.1667 59.8333,52.1667 50.5,53.5C 50.1667,53.5 49.8333,53.5 49.5,53.5C 48.8333,52.1667 48.1667,52.1667 47.5,53.5C 46.8333,53.5 46.1667,53.5 45.5,53.5C 39.1667,52.1667 32.8333,52.1667 26.5,53.5C 26.1667,53.5 25.8333,53.5 25.5,53.5C 24.5,52.8333 23.5,52.1667 22.5,51.5C 55.3376,51.8316 88.0043,51.4983 120.5,50.5 Z"/></g>
<g><path style="opacity:1" fill="#959595" d="M 139.5,37.5 C 139.5,46.1667 139.5,54.8333 139.5,63.5C 136.877,54.8396 136.877,46.1729 139.5,37.5 Z"/></g>
<g><path style="opacity:1" fill="#dfdfdf" d="M 180.5,49.5 C 181.488,50.795 182.488,52.1283 183.5,53.5C 181.088,53.3059 180.088,51.9726 180.5,49.5 Z"/></g>
<g><path style="opacity:1" fill="#d4d4d4" d="M 214.5,50.5 C 216.104,51.287 216.771,52.6203 216.5,54.5C 215.326,53.4863 214.66,52.153 214.5,50.5 Z"/></g>
<g><path style="opacity:1" fill="#c3c3c3" d="M 9.5,56.5 C 8.83333,56.5 8.16667,56.5 7.5,56.5C 7.20894,55.3509 6.37561,54.6842 5,54.5C 3.46718,54.7728 1.96718,55.1062 0.5,55.5C 2.68224,52.9964 5.34891,52.3297 8.5,53.5C 9.38568,54.325 9.71901,55.325 9.5,56.5 Z"/></g>
<g><path style="opacity:1" fill="#c7c7c7" d="M 176.5,54.5 C 169.322,55.1666 161.989,55.8333 154.5,56.5C 155.309,58.0709 155.643,59.7376 155.5,61.5C 153.837,59.5615 153.171,57.2282 153.5,54.5C 161.167,54.5 168.833,54.5 176.5,54.5 Z"/></g>
<g><path style="opacity:1" fill="#717171" d="M 183.5,53.5 C 190.656,54.0139 197.656,54.6805 204.5,55.5C 204.167,55.5 203.833,55.5 203.5,55.5C 197.491,55.6662 191.491,55.4995 185.5,55C 184.584,54.7216 183.918,54.2216 183.5,53.5 Z"/></g>
<g><path style="opacity:1" fill="#232323" d="M 18.5,54.5 C 18.5,55.1667 18.5,55.8333 18.5,56.5C 19.5676,57.4345 20.901,57.7678 22.5,57.5C 22.6641,60.1873 22.4974,62.854 22,65.5C 21.5045,63.5273 21.3379,61.5273 21.5,59.5C 20.209,59.2627 19.209,59.596 18.5,60.5C 18.5,62.1667 18.5,63.8333 18.5,65.5C 17.2132,64.1286 16.5465,62.2953 16.5,60C 16.5465,57.7047 17.2132,55.8714 18.5,54.5 Z"/></g>
<g><path style="opacity:1" fill="#a1a1a1" d="M 25.5,53.5 C 25.8333,53.5 26.1667,53.5 26.5,53.5C 29.239,56.0242 32.5724,57.0242 36.5,56.5C 36.5,56.8333 36.5,57.1667 36.5,57.5C 34.1432,57.3367 31.8098,57.5034 29.5,58C 30.938,58.2189 32.2713,58.7189 33.5,59.5C 31.6496,61.2137 30.3163,63.2137 29.5,65.5C 28.1667,65.5 26.8333,65.5 25.5,65.5C 24.6909,63.7078 24.1909,61.7078 24,59.5C 23.5034,61.8098 23.3367,64.1432 23.5,66.5C 22.5,66.5 21.5,66.5 20.5,66.5C 20.9746,63.9179 20.3079,61.9179 18.5,60.5C 19.209,59.596 20.209,59.2627 21.5,59.5C 21.3379,61.5273 21.5045,63.5273 22,65.5C 22.4974,62.854 22.6641,60.1873 22.5,57.5C 20.901,57.7678 19.5676,57.4345 18.5,56.5C 20.5,56.5 22.5,56.5 24.5,56.5C 24.2627,55.209 24.596,54.209 25.5,53.5 Z M 28.5,59.5 C 30.7602,60.2376 30.9269,61.2376 29,62.5C 28.5172,61.552 28.3505,60.552 28.5,59.5 Z"/></g>
<g><path style="opacity:1" fill="#0c0c0c" d="M 25.5,54.5 C 26.1859,55.8484 27.1859,57.015 28.5,58C 27.4216,58.6739 26.7549,59.6739 26.5,61C 27.0786,62.4459 27.0786,63.6126 26.5,64.5C 25.9639,62.0306 24.9639,59.864 23.5,58C 24.9733,57.2904 25.6399,56.1238 25.5,54.5 Z"/></g>
<g><path style="opacity:1" fill="#1a1a1a" d="M 101.5,57.5 C 101.664,60.1873 101.497,62.854 101,65.5C 100.809,63.2922 100.309,61.2922 99.5,59.5C 99.44,58.9569 99.1067,58.6236 98.5,58.5C 97.1667,67.8333 95.8333,67.8333 94.5,58.5C 92.6466,67.6107 91.6466,67.2774 91.5,57.5C 94.8333,57.5 98.1667,57.5 101.5,57.5 Z"/></g>
<g><path style="opacity:1" fill="#2c2c2c" d="M 68.5,67.5 C 68.5,68.1667 68.1667,68.5 67.5,68.5C 61.7389,68.2912 61.4055,67.4578 66.5,66C 65.2068,65.51 63.8734,65.3433 62.5,65.5C 62.3359,62.8127 62.5026,60.146 63,57.5C 63.4955,59.4727 63.6621,61.4727 63.5,63.5C 64.5,63.5 65.5,63.5 66.5,63.5C 66.2011,61.396 66.5344,59.396 67.5,57.5C 68.487,60.7683 68.8204,64.1016 68.5,67.5 Z"/></g>
<g><path style="opacity:1" fill="#e5e5e5" d="M 203.5,55.5 C 203.833,55.5 204.167,55.5 204.5,55.5C 206.95,55.8743 207.95,57.3743 207.5,60C 208.068,63.2634 206.734,64.7634 203.5,64.5C 207.5,61.5 207.5,58.5 203.5,55.5 Z"/></g>
<g><path style="opacity:1" fill="#c4c4c4" d="M 45.5,53.5 C 46.1667,53.5 46.8333,53.5 47.5,53.5C 47.3505,54.552 47.5172,55.552 48,56.5C 48.2321,55.2625 48.7321,54.2625 49.5,53.5C 49.8333,53.5 50.1667,53.5 50.5,53.5C 51.404,54.209 51.7373,55.209 51.5,56.5C 55.8333,56.5 60.1667,56.5 64.5,56.5C 64.8333,64.5 65.1667,64.5 65.5,56.5C 69.5,56.5 73.5,56.5 77.5,56.5C 77.2627,55.209 77.596,54.209 78.5,53.5C 79.1667,53.5 79.8333,53.5 80.5,53.5C 81.404,54.209 81.7373,55.209 81.5,56.5C 88.3543,56.176 95.021,56.5093 101.5,57.5C 98.1667,57.5 94.8333,57.5 91.5,57.5C 91.6466,67.2774 92.6466,67.6107 94.5,58.5C 95.8333,67.8333 97.1667,67.8333 98.5,58.5C 99.1067,58.6236 99.44,58.9569 99.5,59.5C 99.5,61.5 99.5,63.5 99.5,65.5C 94.4001,66.7999 89.4001,66.7999 84.5,65.5C 82.7163,66.7199 81.0496,66.7199 79.5,65.5C 78.1667,65.5 76.8333,65.5 75.5,65.5C 73.2854,66.2679 70.9521,66.9346 68.5,67.5C 68.8204,64.1016 68.487,60.7683 67.5,57.5C 66.5344,59.396 66.2011,61.396 66.5,63.5C 65.5,63.5 64.5,63.5 63.5,63.5C 63.6621,61.4727 63.4955,59.4727 63,57.5C 62.5026,60.146 62.3359,62.8127 62.5,65.5C 63.8734,65.3433 65.2068,65.51 66.5,66C 61.4055,67.4578 61.7389,68.2912 67.5,68.5C 65.7116,69.6225 63.7116,69.7891 61.5,69C 60.1667,68 60.1667,67 61.5,66C 60.9056,65.5357 60.2389,65.369 59.5,65.5C 60.3007,63.9582 60.634,62.2915 60.5,60.5C 53.8638,59.9782 53.8638,59.1449 60.5,58C 59.5,57.8333 58.5,57.6667 57.5,57.5C 55.6455,57.3402 54.3121,58.0069 53.5,59.5C 51.5354,59.9483 51.2021,60.9483 52.5,62.5C 53.1067,62.3764 53.44,62.0431 53.5,61.5C 55.0858,62.1481 56.7525,62.6481 58.5,63C 55.854,63.4974 53.1873,63.6641 50.5,63.5C 50.1412,61.2341 50.8078,59.4007 52.5,58C 51.1509,57.2276 50.3176,56.0609 50,54.5C 49.5172,55.448 49.3505,56.448 49.5,57.5C 48.1667,57.5 46.8333,57.5 45.5,57.5C 44.9644,60.6981 45.631,63.3647 47.5,65.5C 44.5,66.8333 41.5,66.8333 38.5,65.5C 34.0661,66.7943 29.7327,66.7943 25.5,65.5C 26.8333,65.5 28.1667,65.5 29.5,65.5C 31.924,65.8076 34.2573,65.4742 36.5,64.5C 31.6809,63.9283 31.3475,62.595 35.5,60.5C 36.1098,59.609 36.4431,58.609 36.5,57.5C 36.5,57.1667 36.5,56.8333 36.5,56.5C 40.104,56.9515 43.104,55.9515 45.5,53.5 Z M 53.5,59.5 C 53.5,60.1667 53.5,60.8333 53.5,61.5C 53.44,62.0431 53.1067,62.3764 52.5,62.5C 51.2021,60.9483 51.5354,59.9483 53.5,59.5 Z"/></g>
<g><path style="opacity:1" fill="#1a1a1a" d="M 38.5,65.5 C 37.612,62.9455 37.2786,60.2788 37.5,57.5C 39.5273,57.3379 41.5273,57.5045 43.5,58C 43.9574,58.414 44.2907,58.914 44.5,59.5C 43.1763,60.9347 41.5096,61.9347 39.5,62.5C 44.7064,64.4019 44.373,65.4019 38.5,65.5 Z"/></g>
<g><path style="opacity:1" fill="#ababab" d="M 39.5,58.5 C 40.675,58.281 41.675,58.6143 42.5,59.5C 40.9483,60.7979 39.9483,60.4646 39.5,58.5 Z"/></g>
<g><path style="opacity:1" fill="#2c2c2c" d="M 79.5,65.5 C 78.8869,62.9908 78.2202,60.4908 77.5,58C 78.0712,56.7949 78.7379,55.6283 79.5,54.5C 80.2298,55.9337 81.2298,57.1004 82.5,58C 79.9062,60.0719 79.9062,62.2385 82.5,64.5C 81.675,65.3857 80.675,65.719 79.5,65.5 Z"/></g>
<g><path style="opacity:1" fill="#232323" d="M 75.5,65.5 C 68.3381,65.3872 68.0048,64.3872 74.5,62.5C 72.9547,61.5481 71.288,61.2148 69.5,61.5C 69.1547,58.512 70.488,57.1787 73.5,57.5C 74.5,57.6667 75.5,57.8333 76.5,58C 69.8638,59.1449 69.8638,59.9782 76.5,60.5C 76.634,62.2915 76.3007,63.9582 75.5,65.5 Z"/></g>
<g><path style="opacity:1" fill="#252525" d="M 84.5,65.5 C 83.612,62.9455 83.2786,60.2788 83.5,57.5C 85.5273,57.3379 87.5273,57.5045 89.5,58C 90.3366,59.0113 90.67,60.1779 90.5,61.5C 83.9514,61.9071 83.9514,62.9071 90.5,64.5C 88.604,65.4656 86.604,65.7989 84.5,65.5 Z"/></g>
<g><path style="opacity:1" fill="#a6a6a6" d="M 85.5,58.5 C 86.675,58.281 87.675,58.6143 88.5,59.5C 86.9483,60.7979 85.9483,60.4646 85.5,58.5 Z"/></g>
<g><path style="opacity:1" fill="#afafaf" d="M 104.5,65.5 C 102.666,66.494 100.999,66.494 99.5,65.5C 99.5,63.5 99.5,61.5 99.5,59.5C 100.309,61.2922 100.809,63.2922 101,65.5C 101.497,62.854 101.664,60.1873 101.5,57.5C 104.391,56.5975 107.391,56.2641 110.5,56.5C 110.5,59.8333 110.5,63.1667 110.5,66.5C 108.265,66.7947 106.265,66.4614 104.5,65.5 Z"/></g>
<g><path style="opacity:1" fill="#222222" d="M 104.5,65.5 C 103.612,62.9455 103.279,60.2788 103.5,57.5C 105.5,57.5 107.5,57.5 109.5,57.5C 110.21,60.8595 108.876,62.6929 105.5,63C 110.594,64.4578 110.261,65.2912 104.5,65.5 Z"/></g>
<g><path style="opacity:1" fill="#b5b5b5" d="M 105.5,58.5 C 106.675,58.281 107.675,58.6143 108.5,59.5C 106.948,60.7979 105.948,60.4646 105.5,58.5 Z"/></g>
<g><path style="opacity:1" fill="#252525" d="M 36.5,57.5 C 36.4431,58.609 36.1098,59.609 35.5,60.5C 31.3475,62.595 31.6809,63.9283 36.5,64.5C 34.2573,65.4742 31.924,65.8076 29.5,65.5C 30.3163,63.2137 31.6496,61.2137 33.5,59.5C 32.2713,58.7189 30.938,58.2189 29.5,58C 31.8098,57.5034 34.1432,57.3367 36.5,57.5 Z"/></g>
<g><path style="opacity:1" fill="#252525" d="M 7.5,56.5 C 6.5,56.5 5.5,56.5 4.5,56.5C 3.62356,56.3691 2.95689,56.7025 2.5,57.5C 9.04859,59.0929 9.04859,60.0929 2.5,60.5C 2.5,61.5 2.5,62.5 2.5,63.5C 9.16667,64.1667 9.16667,64.8333 2.5,65.5C 1.83333,64.1667 0.833333,63.1667 -0.5,62.5C -0.5,60.1667 -0.5,57.8333 -0.5,55.5C -0.166667,55.5 0.166667,55.5 0.5,55.5C 1.96718,55.1062 3.46718,54.7728 5,54.5C 6.37561,54.6842 7.20894,55.3509 7.5,56.5 Z"/></g>
<g><path style="opacity:1" fill="#c4c4c4" d="M 18.5,54.5 C 17.2132,55.8714 16.5465,57.7047 16.5,60C 16.5465,62.2953 17.2132,64.1286 18.5,65.5C 16.1667,66.8333 13.8333,66.8333 11.5,65.5C 12.9778,65.762 14.3112,65.4287 15.5,64.5C 14.0508,63.8281 12.7175,63.1614 11.5,62.5C 10.4265,61.7494 10.2599,60.7494 11,59.5C 12.3988,58.7734 13.8988,58.2734 15.5,58C 9.59335,57.2535 7.92668,59.7535 10.5,65.5C 7.69261,66.6567 5.02594,66.6567 2.5,65.5C 9.16667,64.8333 9.16667,64.1667 2.5,63.5C 2.5,62.5 2.5,61.5 2.5,60.5C 9.04859,60.0929 9.04859,59.0929 2.5,57.5C 2.95689,56.7025 3.62356,56.3691 4.5,56.5C 6.16667,57.8333 7.83333,57.8333 9.5,56.5C 11.5,56.5 13.5,56.5 15.5,56.5C 15.4597,52.8001 16.4597,52.1335 18.5,54.5 Z M 11.5,62.5 C 11.62,61.4138 12.2867,60.7472 13.5,60.5C 14.1667,60.8333 14.8333,61.1667 15.5,61.5C 14.3112,62.4287 12.9778,62.762 11.5,62.5 Z"/></g>
<g><path style="opacity:1" fill="#1f1f1f" d="M 11.5,62.5 C 12.7175,63.1614 14.0508,63.8281 15.5,64.5C 14.3112,65.4287 12.9778,65.762 11.5,65.5C 11.1667,65.5 10.8333,65.5 10.5,65.5C 7.92668,59.7535 9.59335,57.2535 15.5,58C 13.8988,58.2734 12.3988,58.7734 11,59.5C 10.2599,60.7494 10.4265,61.7494 11.5,62.5 Z"/></g>
<g><path style="opacity:1" fill="#c3c3c3" d="M -0.5,62.5 C 0.833333,63.1667 1.83333,64.1667 2.5,65.5C 1.39105,65.4431 0.391047,65.1098 -0.5,64.5C -0.5,63.8333 -0.5,63.1667 -0.5,62.5 Z"/></g>
<g><path style="opacity:1" fill="#424242" d="M 53.5,61.5 C 53.5,60.8333 53.5,60.1667 53.5,59.5C 54.3121,58.0069 55.6455,57.3402 57.5,57.5C 58.5,57.6667 59.5,57.8333 60.5,58C 53.8638,59.1449 53.8638,59.9782 60.5,60.5C 60.634,62.2915 60.3007,63.9582 59.5,65.5C 56.5,66.8333 53.5,66.8333 50.5,65.5C 49.9416,63.1766 49.2749,60.8432 48.5,58.5C 47.8933,58.6236 47.56,58.9569 47.5,59.5C 47.5,61.5 47.5,63.5 47.5,65.5C 45.631,63.3647 44.9644,60.6981 45.5,57.5C 46.8333,57.5 48.1667,57.5 49.5,57.5C 49.3505,56.448 49.5172,55.448 50,54.5C 50.3176,56.0609 51.1509,57.2276 52.5,58C 50.8078,59.4007 50.1412,61.2341 50.5,63.5C 53.1873,63.6641 55.854,63.4974 58.5,63C 56.7525,62.6481 55.0858,62.1481 53.5,61.5 Z M 53.5,59.5 C 53.5,60.1667 53.5,60.8333 53.5,61.5C 53.44,62.0431 53.1067,62.3764 52.5,62.5C 51.2021,60.9483 51.5354,59.9483 53.5,59.5 Z"/></g>
<g><path style="opacity:1" fill="#a9a9a9" d="M 47.5,59.5 C 47.56,58.9569 47.8933,58.6236 48.5,58.5C 49.2749,60.8432 49.9416,63.1766 50.5,65.5C 48.9397,63.8439 47.9397,61.8439 47.5,59.5 Z"/></g>
<g><path style="opacity:1" fill="#d4d4d4" d="M 145.5,61.5 C 146.492,63.4561 147.492,65.4561 148.5,67.5C 146.025,66.3126 145.025,64.3126 145.5,61.5 Z"/></g>
<g><path style="opacity:1" fill="#a3a3a3" d="M 155.5,61.5 C 157.14,62.3201 158.807,63.1534 160.5,64C 166.016,64.1733 171.349,64.6733 176.5,65.5C 170.824,65.6661 165.157,65.4994 159.5,65C 157.456,64.5017 156.122,63.335 155.5,61.5 Z"/></g>
<g><path style="opacity:1" fill="#c8c8c8" d="M 216.5,64.5 C 216.771,66.3797 216.104,67.713 214.5,68.5C 214.66,66.847 215.326,65.5137 216.5,64.5 Z"/></g>
<g><path style="opacity:1" fill="#dedede" d="M 214.5,68.5 C 214.5,69.8333 213.833,70.5 212.5,70.5C 212.833,69.5 213.5,68.8333 214.5,68.5 Z"/></g>
<g><path style="opacity:1" fill="#cbcbcb" d="M 150.5,69.5 C 152.434,70.1103 154.101,71.1103 155.5,72.5C 153.067,72.7271 151.401,71.7271 150.5,69.5 Z"/></g>
<g><path style="opacity:1" fill="#b5b5b5" d="M 203.5,64.5 C 196.352,65.4916 189.019,65.825 181.5,65.5C 181.5,67.8333 181.5,70.1667 181.5,72.5C 191.968,73.0348 202.301,72.3681 212.5,70.5C 211.653,71.9663 210.32,72.7996 208.5,73C 199.173,73.4998 189.839,73.6665 180.5,73.5C 180.5,70.5 180.5,67.5 180.5,64.5C 188.167,64.5 195.833,64.5 203.5,64.5 Z"/></g>
<g><path style="opacity:1" fill="#dcedf6" d="M 163.5,90.5 C 169.587,91.9815 175.587,93.3149 181.5,94.5C 175.01,94.8047 169.01,93.4714 163.5,90.5 Z"/></g>
</svg>
