<?xml version="1.0" encoding="UTF-8"?>
<!DOCTYPE svg PUBLIC "-//W3C//DTD SVG 1.1//EN" "http://www.w3.org/Graphics/SVG/1.1/DTD/svg11.dtd">
<svg xmlns="http://www.w3.org/2000/svg" version="1.1" width="229px" height="108px" style="shape-rendering:geometricPrecision; text-rendering:geometricPrecision; image-rendering:optimizeQuality; fill-rule:evenodd; clip-rule:evenodd" xmlns:xlink="http://www.w3.org/1999/xlink">
<g><path style="opacity:1" fill="#fcfcfc" d="M -0.5,-0.5 C 75.8333,-0.5 152.167,-0.5 228.5,-0.5C 228.5,35.5 228.5,71.5 228.5,107.5C 226.167,107.5 223.833,107.5 221.5,107.5C 221.667,79.8313 221.5,52.1647 221,24.5C 219.89,16.7184 215.723,11.2184 208.5,8C 138.87,6.51645 69.2036,6.01645 -0.5,6.5C -0.5,4.16667 -0.5,1.83333 -0.5,-0.5 Z"/></g>
<g><path style="opacity:1" fill="#eeeeee" d="M -0.5,6.5 C 69.2036,6.01645 138.87,6.51645 208.5,8C 215.723,11.2184 219.89,16.7184 221,24.5C 221.5,52.1647 221.667,79.8313 221.5,107.5C 220.5,107.5 219.5,107.5 218.5,107.5C 218.667,80.1646 218.5,52.8313 218,25.5C 217.553,18.4342 214.053,13.6008 207.5,11C 138.204,9.51653 68.8703,9.01653 -0.5,9.5C -0.5,8.5 -0.5,7.5 -0.5,6.5 Z"/></g>
<g><path style="opacity:1" fill="#dfdfdf" d="M -0.5,9.5 C 68.8703,9.01653 138.204,9.51653 207.5,11C 214.053,13.6008 217.553,18.4342 218,25.5C 218.5,52.8313 218.667,80.1646 218.5,107.5C 216.5,107.5 214.5,107.5 212.5,107.5C 212.667,80.4979 212.5,53.4979 212,26.5C 209.833,21.6667 206.333,18.1667 201.5,16C 134.167,15.5 66.8342,15.3333 -0.5,15.5C -0.5,13.5 -0.5,11.5 -0.5,9.5 Z"/></g>
<g><path style="opacity:0.266" fill="#fbfbfc" d="M -0.5,15.5 C 66.8342,15.3333 134.167,15.5 201.5,16C 206.333,18.1667 209.833,21.6667 212,26.5C 212.5,53.4979 212.667,80.4979 212.5,107.5C 141.5,107.5 70.5,107.5 -0.5,107.5C -0.5,106.833 -0.5,106.167 -0.5,105.5C 13.504,105.667 27.504,105.5 41.5,105C 33.5648,102.732 28.7315,97.5649 27,89.5C 26.3333,71.1667 26.3333,52.8333 27,34.5C 29.842,24.1494 36.6753,18.6494 47.5,18C 31.5035,17.5001 15.5035,17.3334 -0.5,17.5C -0.5,16.8333 -0.5,16.1667 -0.5,15.5 Z M 188.5,18.5 C 198.439,15.7615 205.605,19.0948 210,28.5C 210.667,30.8333 210.667,33.1667 210,35.5C 207.053,24.3767 199.886,18.71 188.5,18.5 Z M 209.5,88.5 C 210.489,93.9753 210.822,99.642 210.5,105.5C 205.489,105.666 200.489,105.499 195.5,105C 203.316,102.218 207.982,96.7181 209.5,88.5 Z"/></g>
<g><path style="opacity:0.986" fill="#322f80" d="M 42.5,25.5 C 93.8928,25.0135 145.226,25.5135 196.5,27C 200.29,29.464 202.456,32.964 203,37.5C 203.959,55.2328 203.625,72.8995 202,90.5C 200.5,94 198,96.5 194.5,98C 143.833,98.6667 93.1667,98.6667 42.5,98C 37.6492,96.1309 34.8158,92.6309 34,87.5C 33.3333,70.1667 33.3333,52.8333 34,35.5C 35.2613,30.7452 38.0947,27.4118 42.5,25.5 Z"/></g>
<g><path style="opacity:0.811" fill="#fafafc" d="M 42.5,28.5 C 92.8344,28.3333 143.168,28.5 193.5,29C 196.333,30.5 198.5,32.6667 200,35.5C 200.947,53.8858 200.613,72.2191 199,90.5C 196.949,93.5531 194.115,95.3865 190.5,96C 141.108,96.9858 91.7748,96.6525 42.5,95C 40,93.8333 38.1667,92 37,89.5C 36.3333,71.1667 36.3333,52.8333 37,34.5C 38.6993,32.3039 40.5327,30.3039 42.5,28.5 Z"/></g>
<g><path style="opacity:1" fill="#2c297d" d="M 126.5,41.5 C 126.173,46.2137 126.507,50.8804 127.5,55.5C 128.107,55.3764 128.44,55.0431 128.5,54.5C 134.439,51.3776 139.939,52.0442 145,56.5C 146.441,65.0578 146.941,73.7244 146.5,82.5C 144.833,82.5 143.167,82.5 141.5,82.5C 141.666,75.1591 141.5,67.8258 141,60.5C 137.87,56.1168 134.037,55.4502 129.5,58.5C 128.416,59.6651 127.583,60.9984 127,62.5C 126.5,69.1583 126.334,75.825 126.5,82.5C 124.833,82.5 123.167,82.5 121.5,82.5C 121.5,68.8333 121.5,55.1667 121.5,41.5C 123.167,41.5 124.833,41.5 126.5,41.5 Z"/></g>
<g><path style="opacity:0.9" fill="#a1a1c6" d="M 126.5,41.5 C 127.167,45.8333 127.833,50.1667 128.5,54.5C 128.44,55.0431 128.107,55.3764 127.5,55.5C 126.507,50.8804 126.173,46.2137 126.5,41.5 Z"/></g>
<g><path style="opacity:0.931" fill="#7c7baf" d="M 183.5,41.5 C 183.5,43.1667 183.5,44.8333 183.5,46.5C 184.833,46.5 186.167,46.5 187.5,46.5C 187.5,44.8333 187.5,43.1667 187.5,41.5C 188.461,43.2646 188.795,45.2646 188.5,47.5C 186.5,47.5 184.5,47.5 182.5,47.5C 182.205,45.2646 182.539,43.2646 183.5,41.5 Z"/></g>
<g><path style="opacity:1" fill="#212078" d="M 183.5,41.5 C 184.833,41.5 186.167,41.5 187.5,41.5C 187.5,43.1667 187.5,44.8333 187.5,46.5C 186.167,46.5 184.833,46.5 183.5,46.5C 183.5,44.8333 183.5,43.1667 183.5,41.5 Z"/></g>
<g><path style="opacity:1" fill="#2c297d" d="M 54.5,52.5 C 58.9671,52.1326 63.3004,52.6326 67.5,54C 70.0244,55.883 71.3577,58.383 71.5,61.5C 69.712,61.7852 68.0453,61.4519 66.5,60.5C 63.3433,56.2097 59.3433,55.3764 54.5,58C 51.5575,62.7099 50.7241,67.8765 52,73.5C 55.4323,79.9518 59.9323,80.9518 65.5,76.5C 66.2458,75.2638 66.5792,73.9305 66.5,72.5C 68.604,72.2011 70.604,72.5344 72.5,73.5C 69.4619,81.3527 63.7952,84.5194 55.5,83C 51.3333,81.5 48.5,78.6667 47,74.5C 45.6695,67.7149 46.6695,61.3815 50,55.5C 51.6516,54.6006 53.1516,53.6006 54.5,52.5 Z"/></g>
<g><path style="opacity:1" fill="#2c2a7d" d="M 160.5,52.5 C 168.753,50.4291 174.753,53.0958 178.5,60.5C 177.5,60.8333 176.5,61.1667 175.5,61.5C 173.012,60.7453 171.012,59.2453 169.5,57C 159.574,56.6167 155.741,61.45 158,71.5C 160.437,79.7261 165.104,81.3928 172,76.5C 172.765,72.6376 174.932,71.6376 178.5,73.5C 173.702,84.0228 166.369,86.1894 156.5,80C 151.862,72.7812 151.362,65.2812 155,57.5C 156.73,55.5981 158.563,53.9314 160.5,52.5 Z"/></g>
<g><path style="opacity:1" fill="#2f2c7f" d="M 73.5,52.5 C 75.5,52.5 77.5,52.5 79.5,52.5C 81.5683,60.037 84.2349,67.3704 87.5,74.5C 90.439,67.6189 93.1056,60.6189 95.5,53.5C 97.0453,52.5481 98.712,52.2148 100.5,52.5C 97.1667,62.5 93.8333,72.5 90.5,82.5C 88.5,82.5 86.5,82.5 84.5,82.5C 81.2204,72.3248 77.5537,62.3248 73.5,52.5 Z"/></g>
<g><path style="opacity:1" fill="#27267b" d="M 107.5,52.5 C 109.167,52.5 110.833,52.5 112.5,52.5C 112.5,54.5 112.5,56.5 112.5,58.5C 110.833,58.5 109.167,58.5 107.5,58.5C 107.5,56.5 107.5,54.5 107.5,52.5 Z"/></g>
<g><path style="opacity:0.953" fill="#7170a8" d="M 187.5,82.5 C 187.5,72.8333 187.5,63.1667 187.5,53.5C 186.167,53.5 184.833,53.5 183.5,53.5C 183.5,63.1667 183.5,72.8333 183.5,82.5C 182.506,72.6806 182.173,62.6806 182.5,52.5C 184.5,52.5 186.5,52.5 188.5,52.5C 188.827,62.6806 188.494,72.6806 187.5,82.5 Z"/></g>
<g><path style="opacity:1" fill="#212078" d="M 187.5,82.5 C 186.167,82.5 184.833,82.5 183.5,82.5C 183.5,72.8333 183.5,63.1667 183.5,53.5C 184.833,53.5 186.167,53.5 187.5,53.5C 187.5,63.1667 187.5,72.8333 187.5,82.5 Z"/></g>
<g><path style="opacity:0.9" fill="#9898c0" d="M 112.5,82.5 C 112.5,80.8333 112.5,79.1667 112.5,77.5C 110.833,77.5 109.167,77.5 107.5,77.5C 107.5,79.1667 107.5,80.8333 107.5,82.5C 106.539,80.7354 106.205,78.7354 106.5,76.5C 108.833,76.5 111.167,76.5 113.5,76.5C 113.795,78.7354 113.461,80.7354 112.5,82.5 Z"/></g>
<g><path style="opacity:1" fill="#212078" d="M 112.5,82.5 C 110.833,82.5 109.167,82.5 107.5,82.5C 107.5,80.8333 107.5,79.1667 107.5,77.5C 109.167,77.5 110.833,77.5 112.5,77.5C 112.5,79.1667 112.5,80.8333 112.5,82.5 Z"/></g>
</svg>
