<?xml version="1.0" encoding="UTF-8"?>
<!DOCTYPE svg PUBLIC "-//W3C//DTD SVG 1.1//EN" "http://www.w3.org/Graphics/SVG/1.1/DTD/svg11.dtd">
<svg xmlns="http://www.w3.org/2000/svg" version="1.1" width="200px" height="200px" style="shape-rendering:geometricPrecision; text-rendering:geometricPrecision; image-rendering:optimizeQuality; fill-rule:evenodd; clip-rule:evenodd" xmlns:xlink="http://www.w3.org/1999/xlink">
<g><path style="opacity:1" fill="#fdfefe" d="M -0.5,-0.5 C 66.1667,-0.5 132.833,-0.5 199.5,-0.5C 199.5,66.1667 199.5,132.833 199.5,199.5C 132.833,199.5 66.1667,199.5 -0.5,199.5C -0.5,132.833 -0.5,66.1667 -0.5,-0.5 Z"/></g>
<g><path style="opacity:1" fill="#484848" d="M 100.5,70.5 C 106.678,69.1826 113.012,69.1826 119.5,70.5C 119.376,71.1067 119.043,71.44 118.5,71.5C 112.69,70.5104 106.69,70.1771 100.5,70.5 Z"/></g>
<g><path style="opacity:1" fill="#535353" d="M 171.5,83.5 C 174.625,82.5206 177.958,82.1872 181.5,82.5C 181.5,78.5 181.5,74.5 181.5,70.5C 168.833,70.5 156.167,70.5 143.5,70.5C 143.5,74.5 143.5,78.5 143.5,82.5C 142.515,78.3656 142.182,74.0323 142.5,69.5C 155.833,69.5 169.167,69.5 182.5,69.5C 182.5,74.1667 182.5,78.8333 182.5,83.5C 178.833,83.5 175.167,83.5 171.5,83.5 Z"/></g>
<g><path style="opacity:1" fill="#070607" d="M 68.5,70.5 C 70.8333,70.5 73.1667,70.5 75.5,70.5C 75.8301,88.3412 75.4967,106.008 74.5,123.5C 70.8024,106.348 66.4691,89.3481 61.5,72.5C 63.5098,70.8287 65.8431,70.162 68.5,70.5 Z"/></g>
<g><path style="opacity:1" fill="#090909" d="M 100.5,70.5 C 106.69,70.1771 112.69,70.5104 118.5,71.5C 111.511,80.1273 104.511,88.794 97.5,97.5C 95.4805,98.5383 95.1472,99.8716 96.5,101.5C 104.019,110.648 111.686,119.815 119.5,129C 113.5,129.667 107.5,129.667 101.5,129C 94.8,121.821 87.9667,114.655 81,107.5C 80.1705,102.136 80.3372,96.8023 81.5,91.5C 87.6259,84.1969 93.9592,77.1969 100.5,70.5 Z"/></g>
<g><path style="opacity:1" fill="#000000" d="M 138.5,70.5 C 138.5,90.1667 138.5,109.833 138.5,129.5C 133.5,129.5 128.5,129.5 123.5,129.5C 123.5,109.833 123.5,90.1667 123.5,70.5C 128.5,70.5 133.5,70.5 138.5,70.5 Z"/></g>
<g><path style="opacity:1" fill="#020202" d="M 171.5,83.5 C 170.504,98.6576 170.17,113.991 170.5,129.5C 165.167,129.5 159.833,129.5 154.5,129.5C 154.5,114.167 154.5,98.8333 154.5,83.5C 150.629,83.815 146.962,83.4816 143.5,82.5C 143.5,78.5 143.5,74.5 143.5,70.5C 156.167,70.5 168.833,70.5 181.5,70.5C 181.5,74.5 181.5,78.5 181.5,82.5C 177.958,82.1872 174.625,82.5206 171.5,83.5 Z"/></g>
<g><path style="opacity:1" fill="#3b3b3b" d="M 138.5,69.5 C 138.5,69.8333 138.5,70.1667 138.5,70.5C 133.5,70.5 128.5,70.5 123.5,70.5C 123.5,90.1667 123.5,109.833 123.5,129.5C 123.167,129.5 122.833,129.5 122.5,129.5C 122.5,109.5 122.5,89.5 122.5,69.5C 127.833,69.5 133.167,69.5 138.5,69.5 Z"/></g>
<g><path style="opacity:1" fill="#525252" d="M 68.5,70.5 C 70.9479,69.5269 73.6146,69.1936 76.5,69.5C 76.5,88.8333 76.5,108.167 76.5,127.5C 75.5987,126.71 74.9321,125.71 74.5,124.5C 74.5,124.167 74.5,123.833 74.5,123.5C 75.4967,106.008 75.8301,88.3412 75.5,70.5C 73.1667,70.5 70.8333,70.5 68.5,70.5 Z"/></g>
<g><path style="opacity:1" fill="#7a7a7a" d="M 97.5,97.5 C 97.1667,98.8333 96.8333,100.167 96.5,101.5C 95.1472,99.8716 95.4805,98.5383 97.5,97.5 Z"/></g>
<g><path style="opacity:1" fill="#419e8a" d="M 61.5,117.5 C 64.9743,120.802 68.641,123.968 72.5,127C 72.1667,127.167 71.8333,127.333 71.5,127.5C 63.9359,124.584 56.6025,121.251 49.5,117.5C 41.4698,113.225 33.1365,109.392 24.5,106C 23.4258,105.261 22.7591,104.261 22.5,103C 23.6513,100.535 24.6513,98.0351 25.5,95.5C 26.8566,94.3146 28.3566,93.3146 30,92.5C 40.3797,101.053 50.8797,109.387 61.5,117.5 Z"/></g>
<g><path style="opacity:1" fill="#e9f9f7" d="M 42.5,79.5 C 39.2408,81.1315 38.7408,83.4649 41,86.5C 48.4178,96.0647 55.9178,105.398 63.5,114.5C 63.7148,116.179 63.0481,117.179 61.5,117.5C 50.8797,109.387 40.3797,101.053 30,92.5C 28.3566,93.3146 26.8566,94.3146 25.5,95.5C 25.5,94.1667 25.5,92.8333 25.5,91.5C 30.2034,92.283 34.0367,90.9497 37,87.5C 37.7581,85.2305 37.5914,83.0639 36.5,81C 38.2495,79.6814 40.2495,79.1814 42.5,79.5 Z"/></g>
<g><path style="opacity:1" fill="#449e89" d="M 73.5,124.5 C 73.5654,124.938 73.3988,125.272 73,125.5C 69.9684,121.641 66.8017,117.974 63.5,114.5C 55.9178,105.398 48.4178,96.0647 41,86.5C 38.7408,83.4649 39.2408,81.1315 42.5,79.5C 44.6089,78.6091 46.6089,77.4424 48.5,76C 49.635,75.2506 50.635,75.4173 51.5,76.5C 58.8475,92.5261 66.1809,108.526 73.5,124.5 Z"/></g>
<g><path style="opacity:1" fill="#ecfaf9" d="M 25.5,95.5 C 24.6513,98.0351 23.6513,100.535 22.5,103C 22.7591,104.261 23.4258,105.261 24.5,106C 33.1365,109.392 41.4698,113.225 49.5,117.5C 50.2299,118.712 51.2299,119.712 52.5,120.5C 51.6667,120.833 50.8333,121.167 50,121.5C 47.5495,120.357 45.0495,119.357 42.5,118.5C 39.2293,119.198 35.896,119.198 32.5,118.5C 27.7036,118.134 23.0369,117.134 18.5,115.5C 17.4852,118.276 16.4852,120.943 15.5,123.5C 15.5,120.167 15.5,116.833 15.5,113.5C 17.8273,113.753 19.8273,113.086 21.5,111.5C 24.2206,113.389 26.8872,113.555 29.5,112C 25.075,110.31 21.7416,107.477 19.5,103.5C 19.6998,99.3203 21.6998,96.6536 25.5,95.5 Z"/></g>
<g><path style="opacity:1" fill="#399e87" d="M 32.5,118.5 C 45.3282,122.174 58.3282,125.674 71.5,129C 52.8363,129.5 34.1696,129.667 15.5,129.5C 15.5,127.5 15.5,125.5 15.5,123.5C 16.4852,120.943 17.4852,118.276 18.5,115.5C 23.0369,117.134 27.7036,118.134 32.5,118.5 Z"/></g>
<g><path style="opacity:1" fill="#c3ece5" d="M 63.5,114.5 C 66.8017,117.974 69.9684,121.641 73,125.5C 73.3988,125.272 73.5654,124.938 73.5,124.5C 73.8333,124.5 74.1667,124.5 74.5,124.5C 74.9321,125.71 75.5987,126.71 76.5,127.5C 76.5,128.5 76.5,129.5 76.5,130.5C 55.9931,130.83 35.6598,130.497 15.5,129.5C 34.1696,129.667 52.8363,129.5 71.5,129C 58.3282,125.674 45.3282,122.174 32.5,118.5C 35.896,119.198 39.2293,119.198 42.5,118.5C 45.0495,119.357 47.5495,120.357 50,121.5C 50.8333,121.167 51.6667,120.833 52.5,120.5C 51.2299,119.712 50.2299,118.712 49.5,117.5C 56.6025,121.251 63.9359,124.584 71.5,127.5C 71.8333,127.333 72.1667,127.167 72.5,127C 68.641,123.968 64.9743,120.802 61.5,117.5C 63.0481,117.179 63.7148,116.179 63.5,114.5 Z"/></g>
<g><path style="opacity:1" fill="#9f9f9f" d="M 138.5,69.5 C 139.497,89.6598 139.83,109.993 139.5,130.5C 133.642,130.822 127.975,130.489 122.5,129.5C 122.833,129.5 123.167,129.5 123.5,129.5C 128.5,129.5 133.5,129.5 138.5,129.5C 138.5,109.833 138.5,90.1667 138.5,70.5C 138.5,70.1667 138.5,69.8333 138.5,69.5 Z"/></g>
</svg>
