<?xml version="1.0" encoding="UTF-8"?>
<!DOCTYPE svg PUBLIC "-//W3C//DTD SVG 1.1//EN" "http://www.w3.org/Graphics/SVG/1.1/DTD/svg11.dtd">
<svg xmlns="http://www.w3.org/2000/svg" version="1.1" width="516px" height="258px" style="shape-rendering:geometricPrecision; text-rendering:geometricPrecision; image-rendering:optimizeQuality; fill-rule:evenodd; clip-rule:evenodd" xmlns:xlink="http://www.w3.org/1999/xlink">
<g><path style="opacity:0.959" fill="#2de8ca" d="M -0.5,-0.5 C 85.5,-0.5 171.5,-0.5 257.5,-0.5C 257.5,14.1667 257.5,28.8333 257.5,43.5C 221.833,43.5 186.167,43.5 150.5,43.5C 150.5,114.833 150.5,186.167 150.5,257.5C 135.5,257.5 120.5,257.5 105.5,257.5C 105.5,186.167 105.5,114.833 105.5,43.5C 70.1667,43.5 34.8333,43.5 -0.5,43.5C -0.5,28.8333 -0.5,14.1667 -0.5,-0.5 Z"/></g>
<g><path style="opacity:0.852" fill="#2de8ca" d="M 365.5,-0.5 C 378.833,-0.5 392.167,-0.5 405.5,-0.5C 467,12.9302 503.667,50.5969 515.5,112.5C 515.5,123.167 515.5,133.833 515.5,144.5C 512.221,165.403 504.721,184.737 493,202.5C 488.878,208.291 484.378,213.791 479.5,219C 491.395,231.063 503.395,242.896 515.5,254.5C 515.5,255.5 515.5,256.5 515.5,257.5C 465.5,257.5 415.5,257.5 365.5,257.5C 311.897,246.401 276.731,214.735 260,162.5C 247.051,100.678 266.551,52.1777 318.5,17C 333.343,8.66717 349.009,2.83384 365.5,-0.5 Z M 377.5,43.5 C 416.797,42.2273 445.631,58.894 464,93.5C 478.934,134.608 469.767,169.108 436.5,197C 405.323,217.472 373.323,218.806 340.5,201C 309.215,179.25 296.382,149.416 302,111.5C 312.893,72.7642 338.06,50.0975 377.5,43.5 Z"/></g>
</svg>
