<?xml version="1.0" encoding="UTF-8"?>
<!DOCTYPE svg PUBLIC "-//W3C//DTD SVG 1.1//EN" "http://www.w3.org/Graphics/SVG/1.1/DTD/svg11.dtd">
<svg xmlns="http://www.w3.org/2000/svg" version="1.1" width="222px" height="300px" style="shape-rendering:geometricPrecision; text-rendering:geometricPrecision; image-rendering:optimizeQuality; fill-rule:evenodd; clip-rule:evenodd" xmlns:xlink="http://www.w3.org/1999/xlink">
<g><path style="opacity:1" fill="#e86f00" d="M 139.5,-0.5 C 140.167,-0.5 140.833,-0.5 141.5,-0.5C 150.646,12.3668 151.813,26.0335 145,40.5C 141.078,48.0161 136.411,55.0161 131,61.5C 119.856,72.0667 108.523,82.4 97,92.5C 87.6773,103.127 85.344,115.127 90,128.5C 95.2114,138.37 101.211,147.704 108,156.5C 109.167,158.833 110.333,161.167 111.5,163.5C 111.167,163.833 110.833,164.167 110.5,164.5C 98.1085,154.61 87.2752,143.276 78,130.5C 67.393,115.546 68.0596,101.213 80,87.5C 91.582,76.5804 103.749,66.4137 116.5,57C 123.407,50.7638 129.573,43.9305 135,36.5C 141.608,24.7453 143.108,12.412 139.5,-0.5 Z"/></g>
<g><path style="opacity:1" fill="#e86f00" d="M 177.5,59.5 C 178.774,60.1894 178.774,61.0228 177.5,62C 160.709,70.637 145.876,81.8037 133,95.5C 129.096,101.094 128.096,107.094 130,113.5C 134.27,121.43 138.936,129.097 144,136.5C 146.998,146.846 144.665,155.846 137,163.5C 132.12,168.356 126.62,172.356 120.5,175.5C 119.479,174.998 119.312,174.332 120,173.5C 128.572,166.547 130.905,157.881 127,147.5C 103.08,122.03 105.246,99.1967 133.5,79C 147.455,70.6366 162.121,64.1366 177.5,59.5 Z"/></g>
<g><path style="opacity:1" fill="#5382a2" d="M 221.5,177.5 C 221.5,181.167 221.5,184.833 221.5,188.5C 217.547,197.629 211.214,204.795 202.5,210C 192.986,215.625 182.986,219.125 172.5,220.5C 178.797,216.347 185.13,212.18 191.5,208C 198.585,202.586 203.751,195.753 207,187.5C 208.678,174.514 203.011,167.514 190,166.5C 186.491,166.452 183.157,167.119 180,168.5C 180.76,164.76 183.26,162.593 187.5,162C 203.131,158.322 214.464,163.489 221.5,177.5 Z"/></g>
<g><path style="opacity:1" fill="#5383a2" d="M 68.5,163.5 C 71.5719,163.183 74.5719,163.516 77.5,164.5C 69.828,166.89 62.1614,169.39 54.5,172C 51.2738,173.106 48.6071,174.939 46.5,177.5C 47.3805,178.971 48.7139,179.804 50.5,180C 91.9037,184.24 133.07,182.407 174,174.5C 174.5,174.833 175,175.167 175.5,175.5C 162.117,183.691 147.45,188.191 131.5,189C 104.197,191.836 76.8634,192.17 49.5,190C 42.677,189.435 36.0103,188.102 29.5,186C 25.2297,185.088 23.3963,182.588 24,178.5C 27.59,175.954 31.4234,173.787 35.5,172C 46.3534,168.038 57.3534,165.204 68.5,163.5 Z"/></g>
<g><path style="opacity:1" fill="#5382a1" d="M 62.5,197.5 C 63.3764,197.369 64.0431,197.702 64.5,198.5C 58.5774,203.841 59.5774,207.341 67.5,209C 95.1174,212.278 122.617,211.111 150,205.5C 154.411,208.29 158.911,210.956 163.5,213.5C 163.291,214.086 162.957,214.586 162.5,215C 133.275,222.99 103.608,225.324 73.5,222C 63.9925,221.339 55.4925,218.172 48,212.5C 47.3333,210.5 47.3333,208.5 48,206.5C 52.3435,202.585 57.1768,199.585 62.5,197.5 Z"/></g>
<g><path style="opacity:1" fill="#5382a1" d="M 69.5,230.5 C 70.552,230.351 71.552,230.517 72.5,231C 66.8337,235.699 67.8337,238.366 75.5,239C 97.5553,242.856 119.389,242.023 141,236.5C 146.764,239.632 152.597,242.632 158.5,245.5C 146.88,251.323 134.547,254.823 121.5,256C 108.129,256.857 94.7958,256.524 81.5,255C 74.9139,253.771 68.5806,251.771 62.5,249C 59.3055,247.305 56.9722,244.805 55.5,241.5C 56.0339,239.386 57.0339,237.552 58.5,236C 62.2585,234.121 65.9252,232.287 69.5,230.5 Z"/></g>
<g><path style="opacity:1" fill="#5383a2" d="M -0.5,273.5 C -0.5,271.5 -0.5,269.5 -0.5,267.5C 13.9038,255.583 30.2371,251.25 48.5,254.5C 39.0228,255.826 30.0228,258.659 21.5,263C 19.6063,264.079 19.273,265.413 20.5,267C 34.0652,271.817 48.0652,274.484 62.5,275C 105.475,277.986 148.141,275.653 190.5,268C 196.031,267.078 200.364,264.411 203.5,260C 200.622,253.455 201.956,252.955 207.5,258.5C 208.977,263.383 207.31,266.883 202.5,269C 189.451,275.013 175.784,279.013 161.5,281C 112.077,287.466 62.7441,286.8 13.5,279C 8.29736,278.373 3.63069,276.54 -0.5,273.5 Z"/></g>
<g><path style="opacity:0.964" fill="#5383a2" d="M 221.5,270.5 C 221.5,271.833 221.5,273.167 221.5,274.5C 219.408,278.428 216.408,281.594 212.5,284C 202.178,289.663 191.178,293.329 179.5,295C 167.727,296.843 156.06,298.343 144.5,299.5C 123.167,299.5 101.833,299.5 80.5,299.5C 67.0026,298.636 53.6692,296.136 40.5,292C 39.2888,291.107 39.2888,290.274 40.5,289.5C 60.5092,292.837 80.6759,294.171 101,293.5C 134.4,294.377 167.233,290.544 199.5,282C 207.835,279.747 215.169,275.914 221.5,270.5 Z"/></g>
</svg>
