<?xml version="1.0" encoding="UTF-8"?>
<!DOCTYPE svg PUBLIC "-//W3C//DTD SVG 1.1//EN" "http://www.w3.org/Graphics/SVG/1.1/DTD/svg11.dtd">
<svg xmlns="http://www.w3.org/2000/svg" version="1.1" width="372px" height="372px" style="shape-rendering:geometricPrecision; text-rendering:geometricPrecision; image-rendering:optimizeQuality; fill-rule:evenodd; clip-rule:evenodd" xmlns:xlink="http://www.w3.org/1999/xlink">
<g><path style="opacity:0.992" fill="#fefefd" d="M 165.5,-0.5 C 178.833,-0.5 192.167,-0.5 205.5,-0.5C 282.915,11.4071 335.415,54.0737 363,127.5C 366.813,140.088 369.646,152.754 371.5,165.5C 371.5,178.833 371.5,192.167 371.5,205.5C 359.593,282.915 316.926,335.415 243.5,363C 230.912,366.813 218.246,369.646 205.5,371.5C 192.167,371.5 178.833,371.5 165.5,371.5C 88.0849,359.593 35.5849,316.926 8,243.5C 4.1874,230.912 1.35407,218.246 -0.5,205.5C -0.5,192.167 -0.5,178.833 -0.5,165.5C 11.4071,88.0849 54.0737,35.5849 127.5,8C 140.088,4.1874 152.754,1.35407 165.5,-0.5 Z"/></g>
<g><path style="opacity:1" fill="#e46e2f" d="M 170.5,20.5 C 240.33,17.1569 293.163,45.1569 329,104.5C 332.841,110.827 335.508,117.494 337,124.5C 318.364,105.757 296.53,91.9238 271.5,83C 213.717,63.3613 156.05,63.6947 98.5,84C 74.4809,93.2441 53.6475,107.077 36,125.5C 41.8518,107.803 50.8518,91.8032 63,77.5C 91.4748,44.6786 127.308,25.6786 170.5,20.5 Z"/></g>
<g><path style="opacity:1" fill="#3a3b3a" d="M 248.5,136.5 C 249.167,141.5 249.833,146.5 250.5,151.5C 254.833,151.5 259.167,151.5 263.5,151.5C 263.5,153.833 263.5,156.167 263.5,158.5C 259.167,158.5 254.833,158.5 250.5,158.5C 250.333,169.838 250.5,181.172 251,192.5C 251.785,194.286 252.951,195.786 254.5,197C 257.482,197.498 260.482,197.665 263.5,197.5C 263.5,199.833 263.5,202.167 263.5,204.5C 251.699,208.186 244.199,204.186 241,192.5C 240.5,181.172 240.333,169.838 240.5,158.5C 237.833,158.5 235.167,158.5 232.5,158.5C 232.5,156.167 232.5,153.833 232.5,151.5C 235.5,151.5 238.5,151.5 241.5,151.5C 241.5,147.167 241.5,142.833 241.5,138.5C 243.657,137.593 245.99,136.927 248.5,136.5 Z"/></g>
<g><path style="opacity:1" fill="#666766" d="M 248.5,136.5 C 248.56,135.957 248.893,135.624 249.5,135.5C 250.494,140.456 250.827,145.456 250.5,150.5C 250.5,150.833 250.5,151.167 250.5,151.5C 249.833,146.5 249.167,141.5 248.5,136.5 Z"/></g>
<g><path style="opacity:1" fill="#373837" d="M 118.5,225.5 C 118.5,200.833 118.5,176.167 118.5,151.5C 121.167,151.5 123.833,151.5 126.5,151.5C 126.336,154.187 126.503,156.854 127,159.5C 138.611,146.558 150.611,146.225 163,158.5C 172.034,174.846 169.868,189.346 156.5,202C 145.773,207.846 136.273,206.346 128,197.5C 127.5,206.827 127.334,216.161 127.5,225.5C 124.5,225.5 121.5,225.5 118.5,225.5 Z"/></g>
<g><path style="opacity:1" fill="#929292" d="M 241.5,138.5 C 241.5,142.833 241.5,147.167 241.5,151.5C 238.5,151.5 235.5,151.5 232.5,151.5C 234.948,150.527 237.615,150.194 240.5,150.5C 240.183,146.298 240.517,142.298 241.5,138.5 Z"/></g>
<g><path style="opacity:1" fill="#9d9d9d" d="M 250.5,151.5 C 250.5,151.167 250.5,150.833 250.5,150.5C 255.167,150.5 259.833,150.5 264.5,150.5C 264.806,153.385 264.473,156.052 263.5,158.5C 263.5,156.167 263.5,153.833 263.5,151.5C 259.167,151.5 254.833,151.5 250.5,151.5 Z"/></g>
<g><path style="opacity:1" fill="#393a39" d="M 289.5,150.5 C 310.572,148.571 320.572,158.237 319.5,179.5C 307.167,179.5 294.833,179.5 282.5,179.5C 281.984,187.969 285.651,193.803 293.5,197C 300.959,197.909 308.292,197.409 315.5,195.5C 315.993,197.806 316.326,200.139 316.5,202.5C 308.69,205.088 300.69,205.921 292.5,205C 276.904,199.327 270.404,188.16 273,171.5C 275.178,161.773 280.678,154.773 289.5,150.5 Z"/></g>
<g><path style="opacity:1" fill="#353635" d="M 359.5,150.5 C 359.5,153.167 359.5,155.833 359.5,158.5C 357.265,158.205 355.265,158.539 353.5,159.5C 347.243,161.993 343.91,166.66 343.5,173.5C 342.506,183.319 342.173,193.319 342.5,203.5C 339.833,203.5 337.167,203.5 334.5,203.5C 334.83,187.658 334.496,171.991 333.5,156.5C 333.5,154.833 333.5,153.167 333.5,151.5C 336.167,151.5 338.833,151.5 341.5,151.5C 341.335,154.85 341.502,158.183 342,161.5C 342.717,160.956 343.217,160.289 343.5,159.5C 346.713,152.236 352.047,149.236 359.5,150.5 Z"/></g>
<g><path style="opacity:1" fill="#9b9b9b" d="M 359.5,150.5 C 360.477,153.287 360.81,156.287 360.5,159.5C 358.167,159.5 355.833,159.5 353.5,159.5C 355.265,158.539 357.265,158.205 359.5,158.5C 359.5,155.833 359.5,153.167 359.5,150.5 Z"/></g>
<g><path style="opacity:1" fill="#373837" d="M 27.5,151.5 C 30.5,151.5 33.5,151.5 36.5,151.5C 36.5,169.833 36.5,188.167 36.5,206.5C 35.2462,220.098 27.9128,226.431 14.5,225.5C 13.6518,223.591 13.3184,221.591 13.5,219.5C 21.6268,219.538 26.1268,215.538 27,207.5C 27.4999,188.836 27.6666,170.17 27.5,151.5 Z"/></g>
<g><path style="opacity:1" fill="#636363" d="M 27.5,151.5 C 30.6248,150.521 33.9581,150.187 37.5,150.5C 37.8302,169.341 37.4969,188.007 36.5,206.5C 36.5,188.167 36.5,169.833 36.5,151.5C 33.5,151.5 30.5,151.5 27.5,151.5 Z"/></g>
<g><path style="opacity:1" fill="#353635" d="M 99.5,197.5 C 99.5,199.5 99.5,201.5 99.5,203.5C 96.8333,203.5 94.1667,203.5 91.5,203.5C 91.6641,200.813 91.4974,198.146 91,195.5C 83.7973,205.122 74.6306,207.622 63.5,203C 59.619,200.072 57.119,196.239 56,191.5C 55.5001,178.171 55.3334,164.837 55.5,151.5C 58.5,151.5 61.5,151.5 64.5,151.5C 64.3335,163.505 64.5001,175.505 65,187.5C 68.4745,197.649 74.9745,200.149 84.5,195C 86.9686,192.559 88.802,189.726 90,186.5C 90.4999,174.838 90.6665,163.171 90.5,151.5C 93.5,151.5 96.5,151.5 99.5,151.5C 99.5,166.833 99.5,182.167 99.5,197.5 Z"/></g>
<g><path style="opacity:1" fill="#383938" d="M 175.5,151.5 C 179.106,151.211 182.606,151.544 186,152.5C 190.836,165.505 195.67,178.505 200.5,191.5C 205.293,178.622 209.793,165.622 214,152.5C 217.409,151.378 220.909,151.211 224.5,152C 217.867,169.562 211.034,187.062 204,204.5C 200.039,216.126 192.372,224.126 181,228.5C 179.451,225.688 178.618,222.688 178.5,219.5C 187.035,216.814 192.701,211.147 195.5,202.5C 188.828,185.482 182.162,168.482 175.5,151.5 Z"/></g>
<g><path style="opacity:1" fill="#f9f9f9" d="M 293.5,156.5 C 304.336,156.336 310.002,161.669 310.5,172.5C 301.167,172.5 291.833,172.5 282.5,172.5C 283.048,164.963 286.714,159.63 293.5,156.5 Z"/></g>
<g><path style="opacity:1" fill="#fbfbfb" d="M 138.5,157.5 C 148.452,156.722 154.952,161.056 158,170.5C 159.31,177.871 158.31,184.871 155,191.5C 148.749,198.011 141.582,199.177 133.5,195C 130.894,193.062 129.061,190.562 128,187.5C 127.116,180.418 127.449,173.418 129,166.5C 131.406,162.592 134.572,159.592 138.5,157.5 Z"/></g>
<g><path style="opacity:1" fill="#a5a5a5" d="M 341.5,151.5 C 342.167,154.167 342.833,156.833 343.5,159.5C 343.217,160.289 342.717,160.956 342,161.5C 341.502,158.183 341.335,154.85 341.5,151.5 Z"/></g>
<g><path style="opacity:1" fill="#999999" d="M 126.5,151.5 C 123.833,151.5 121.167,151.5 118.5,151.5C 118.5,176.167 118.5,200.833 118.5,225.5C 117.502,200.672 117.169,175.672 117.5,150.5C 120.713,150.19 123.713,150.523 126.5,151.5 Z"/></g>
<g><path style="opacity:1" fill="#626262" d="M 333.5,156.5 C 334.496,171.991 334.83,187.658 334.5,203.5C 337.167,203.5 339.833,203.5 342.5,203.5C 342.173,193.319 342.506,183.319 343.5,173.5C 343.5,183.833 343.5,194.167 343.5,204.5C 340.167,204.5 336.833,204.5 333.5,204.5C 333.5,188.5 333.5,172.5 333.5,156.5 Z"/></g>
<g><path style="opacity:1" fill="#7d7e7d" d="M 99.5,197.5 C 100.468,199.607 100.802,201.941 100.5,204.5C 97.2869,204.81 94.2869,204.477 91.5,203.5C 94.1667,203.5 96.8333,203.5 99.5,203.5C 99.5,201.5 99.5,199.5 99.5,197.5 Z"/></g>
<g><path style="opacity:1" fill="#e46f2f" d="M 337.5,237.5 C 319.671,286.487 285.671,319.321 235.5,336C 165.067,354.858 106.234,336.691 59,281.5C 48.9444,268.386 41.2778,254.052 36,238.5C 53.0127,256.598 73.1793,270.098 96.5,279C 142.769,295.522 190.102,299.188 238.5,290C 272.657,283.418 302.991,269.085 329.5,247C 332.754,244.253 335.42,241.086 337.5,237.5 Z"/></g>
</svg>
