<?xml version="1.0" encoding="UTF-8"?>
<!DOCTYPE svg PUBLIC "-//W3C//DTD SVG 1.1//EN" "http://www.w3.org/Graphics/SVG/1.1/DTD/svg11.dtd">
<svg xmlns="http://www.w3.org/2000/svg" version="1.1" width="768px" height="768px" style="shape-rendering:geometricPrecision; text-rendering:geometricPrecision; image-rendering:optimizeQuality; fill-rule:evenodd; clip-rule:evenodd" xmlns:xlink="http://www.w3.org/1999/xlink">
<g><path style="opacity:0.996" fill="#263238" d="M 585.5,502.5 C 577.404,502.865 569.738,504.865 562.5,508.5C 561.871,505.36 560.204,502.86 557.5,501C 548.923,497.531 540.256,494.697 531.5,492.5C 540.093,473.792 544.76,454.125 545.5,433.5C 544.924,416.69 539.091,402.023 528,389.5C 519.974,380.778 510.807,373.945 500.5,369C 540.487,402.179 545.321,440.012 515,482.5C 512.667,484.833 510.333,487.167 508,489.5C 510.082,460.069 507.415,431.069 500,402.5C 479.441,358.318 460.941,313.318 444.5,267.5C 445.336,262.166 445.836,256.833 446,251.5C 443.111,246.125 438.611,242.792 432.5,241.5C 447.5,222.481 448.334,202.814 435,182.5C 421.349,169.827 408.683,170.827 397,185.5C 389.004,198.125 387.504,211.459 392.5,225.5C 392.376,226.107 392.043,226.44 391.5,226.5C 382.627,223.7 373.627,223.033 364.5,224.5C 368.892,208.39 365.226,194.556 353.5,183C 341.779,178.268 333.279,181.768 328,193.5C 323.408,205.798 323.408,218.132 328,230.5C 329.791,234.439 332.291,237.772 335.5,240.5C 331.527,244.301 327.36,247.968 323,251.5C 318.388,258.433 318.388,265.433 323,272.5C 325.703,275.371 328.536,278.038 331.5,280.5C 332.207,297.021 329.707,313.021 324,328.5C 315.474,349.899 304.14,369.566 290,387.5C 275.844,412.305 267.51,438.972 265,467.5C 263.815,465.623 262.815,463.623 262,461.5C 260.507,435.626 265.007,410.793 275.5,387C 275.333,386.5 275.167,386 275,385.5C 273.487,388.527 271.987,391.527 270.5,394.5C 269.833,394.5 269.5,394.833 269.5,395.5C 269.5,395.833 269.5,396.167 269.5,396.5C 268.833,396.5 268.5,396.833 268.5,397.5C 268.5,397.833 268.5,398.167 268.5,398.5C 267.833,398.5 267.5,398.833 267.5,399.5C 267.5,399.833 267.5,400.167 267.5,400.5C 266.833,400.5 266.5,400.833 266.5,401.5C 266.5,401.833 266.5,402.167 266.5,402.5C 265.833,402.5 265.5,402.833 265.5,403.5C 265.5,403.833 265.5,404.167 265.5,404.5C 264.833,404.5 264.5,404.833 264.5,405.5C 264.5,405.833 264.5,406.167 264.5,406.5C 263.833,406.5 263.5,406.833 263.5,407.5C 260.599,413.299 258.265,419.299 256.5,425.5C 255.833,425.5 255.5,425.833 255.5,426.5C 255.5,427.167 255.5,427.833 255.5,428.5C 251.366,440.237 250.032,452.237 251.5,464.5C 251.068,471.793 253.235,478.127 258,483.5C 265.167,490.667 272.333,497.833 279.5,505C 298,520.167 316.5,535.333 335,550.5C 341.09,558.889 340.923,567.056 334.5,575C 329.704,576.898 325.038,579.065 320.5,581.5C 335.093,596.13 352.76,604.964 373.5,608C 394.446,610.246 414.446,606.913 433.5,598C 446.516,591.831 458.85,584.665 470.5,576.5C 468.336,590.154 466.169,603.82 464,617.5C 463.5,625.159 463.334,632.826 463.5,640.5C 451.276,638.298 438.943,636.964 426.5,636.5C 395.508,637.893 364.508,638.893 333.5,639.5C 333.666,631.826 333.5,624.159 333,616.5C 332,613.833 331,611.167 330,608.5C 313.751,585.678 298.751,562.012 285,537.5C 278.333,527.5 271.667,517.5 265,507.5C 257.764,497.262 248.93,488.762 238.5,482C 232.501,480.891 226.834,481.725 221.5,484.5C 220.251,473.307 221.417,462.307 225,451.5C 240.759,399.628 266.092,353.295 301,312.5C 309.98,301.227 314.813,288.393 315.5,274C 313.003,245.881 311.337,217.715 310.5,189.5C 306.163,129.345 333.997,97.3451 394,93.5C 402.292,93.8073 410.459,94.974 418.5,97C 436.08,101.867 451.247,110.701 464,123.5C 483.04,151.159 490.54,181.659 486.5,215C 489.495,247.318 499.661,277.151 517,304.5C 533.449,326.952 549.115,349.952 564,373.5C 577.693,397.246 587.026,422.58 592,449.5C 592.667,458.5 592.667,467.5 592,476.5C 590.456,485.342 588.289,494.009 585.5,502.5 Z M 255.5,428.5 C 254.24,440.509 252.906,452.509 251.5,464.5C 250.032,452.237 251.366,440.237 255.5,428.5 Z"/></g>
<g><path style="opacity:1" fill="#e7eaeb" d="M 432.5,241.5 C 427.785,239.923 423.118,238.59 418.5,237.5C 427.248,233.197 431.581,226.03 431.5,216C 430.899,203.061 424.232,196.728 411.5,197C 403.839,200.999 399.839,207.333 399.5,216C 399.524,221.269 400.857,226.102 403.5,230.5C 399.225,229.681 395.225,228.347 391.5,226.5C 392.043,226.44 392.376,226.107 392.5,225.5C 387.504,211.459 389.004,198.125 397,185.5C 408.683,170.827 421.349,169.827 435,182.5C 448.334,202.814 447.5,222.481 432.5,241.5 Z"/></g>
<g><path style="opacity:1" fill="#e7eaec" d="M 364.5,224.5 C 361.402,225.216 358.402,226.216 355.5,227.5C 358.36,216.882 356.36,207.382 349.5,199C 347.217,196.81 344.551,196.143 341.5,197C 336.458,200.75 334.125,205.75 334.5,212C 334.306,220.945 337.306,228.445 343.5,234.5C 340.833,236.5 338.167,238.5 335.5,240.5C 332.291,237.772 329.791,234.439 328,230.5C 323.408,218.132 323.408,205.798 328,193.5C 333.279,181.768 341.779,178.268 353.5,183C 365.226,194.556 368.892,208.39 364.5,224.5 Z"/></g>
<g><path style="opacity:1" fill="#232322" d="M 418.5,237.5 C 413.167,235.73 408.167,233.397 403.5,230.5C 400.857,226.102 399.524,221.269 399.5,216C 399.839,207.333 403.839,200.999 411.5,197C 424.232,196.728 430.899,203.061 431.5,216C 431.581,226.03 427.248,233.197 418.5,237.5 Z"/></g>
<g><path style="opacity:1" fill="#232323" d="M 355.5,227.5 C 351.172,229.329 347.172,231.662 343.5,234.5C 337.306,228.445 334.306,220.945 334.5,212C 334.125,205.75 336.458,200.75 341.5,197C 344.551,196.143 347.217,196.81 349.5,199C 356.36,207.382 358.36,216.882 355.5,227.5 Z"/></g>
<g><path style="opacity:1" fill="#fdbf0a" d="M 391.5,226.5 C 395.225,228.347 399.225,229.681 403.5,230.5C 408.167,233.397 413.167,235.73 418.5,237.5C 423.118,238.59 427.785,239.923 432.5,241.5C 438.611,242.792 443.111,246.125 446,251.5C 445.836,256.833 445.336,262.166 444.5,267.5C 442.801,272.032 439.801,275.532 435.5,278C 419.112,286.861 402.445,295.194 385.5,303C 376.114,303.853 366.781,303.519 357.5,302C 348.377,295.376 339.71,288.209 331.5,280.5C 328.536,278.038 325.703,275.371 323,272.5C 318.388,265.433 318.388,258.433 323,251.5C 327.36,247.968 331.527,244.301 335.5,240.5C 338.167,238.5 340.833,236.5 343.5,234.5C 347.172,231.662 351.172,229.329 355.5,227.5C 358.402,226.216 361.402,225.216 364.5,224.5C 373.627,223.033 382.627,223.7 391.5,226.5 Z"/></g>
<g><path style="opacity:1" fill="#6b4d03" d="M 360.5,234.5 C 362.665,234.116 364.332,234.783 365.5,236.5C 362.991,237.921 360.657,239.588 358.5,241.5C 357.5,241.167 356.833,240.5 356.5,239.5C 357.857,237.814 359.19,236.148 360.5,234.5 Z"/></g>
<g><path style="opacity:1" fill="#6e4f03" d="M 382.5,235.5 C 388.069,234.747 391.403,237.08 392.5,242.5C 389.777,241.648 387.11,240.481 384.5,239C 383.177,238.184 382.511,237.017 382.5,235.5 Z"/></g>
<g><path style="opacity:1" fill="#674a03" d="M 426.5,250.5 C 428.833,250.5 431.167,250.5 433.5,250.5C 433.649,251.552 433.483,252.552 433,253.5C 415.403,266.048 396.236,275.548 375.5,282C 354.734,285.701 337.901,279.201 325,262.5C 324.409,261.517 324.743,260.85 326,260.5C 344.71,277.836 365.877,281.336 389.5,271C 402.54,265.153 414.873,258.32 426.5,250.5 Z"/></g>
<g><path style="opacity:1" fill="#ebeef0" d="M 444.5,267.5 C 460.941,313.318 479.441,358.318 500,402.5C 507.415,431.069 510.082,460.069 508,489.5C 510.333,487.167 512.667,484.833 515,482.5C 545.321,440.012 540.487,402.179 500.5,369C 510.807,373.945 519.974,380.778 528,389.5C 539.091,402.023 544.924,416.69 545.5,433.5C 544.76,454.125 540.093,473.792 531.5,492.5C 521.646,492.339 512.979,495.339 505.5,501.5C 499.755,496.562 493.089,494.729 485.5,496C 480.269,498.232 476.769,502.065 475,507.5C 474.165,530.524 472.665,553.524 470.5,576.5C 458.85,584.665 446.516,591.831 433.5,598C 414.446,606.913 394.446,610.246 373.5,608C 352.76,604.964 335.093,596.13 320.5,581.5C 325.038,579.065 329.704,576.898 334.5,575C 340.923,567.056 341.09,558.889 335,550.5C 316.5,535.333 298,520.167 279.5,505C 272.333,497.833 265.167,490.667 258,483.5C 253.235,478.127 251.068,471.793 251.5,464.5C 252.906,452.509 254.24,440.509 255.5,428.5C 255.5,427.833 255.5,427.167 255.5,426.5C 256.167,426.5 256.5,426.167 256.5,425.5C 258.265,419.299 260.599,413.299 263.5,407.5C 264.167,407.5 264.5,407.167 264.5,406.5C 264.5,406.167 264.5,405.833 264.5,405.5C 265.167,405.5 265.5,405.167 265.5,404.5C 265.5,404.167 265.5,403.833 265.5,403.5C 266.167,403.5 266.5,403.167 266.5,402.5C 266.5,402.167 266.5,401.833 266.5,401.5C 267.167,401.5 267.5,401.167 267.5,400.5C 267.5,400.167 267.5,399.833 267.5,399.5C 268.167,399.5 268.5,399.167 268.5,398.5C 268.5,398.167 268.5,397.833 268.5,397.5C 269.167,397.5 269.5,397.167 269.5,396.5C 269.5,396.167 269.5,395.833 269.5,395.5C 270.167,395.5 270.5,395.167 270.5,394.5C 271.987,391.527 273.487,388.527 275,385.5C 275.167,386 275.333,386.5 275.5,387C 265.007,410.793 260.507,435.626 262,461.5C 262.815,463.623 263.815,465.623 265,467.5C 267.51,438.972 275.844,412.305 290,387.5C 304.14,369.566 315.474,349.899 324,328.5C 329.707,313.021 332.207,297.021 331.5,280.5C 339.71,288.209 348.377,295.376 357.5,302C 366.781,303.519 376.114,303.853 385.5,303C 402.445,295.194 419.112,286.861 435.5,278C 439.801,275.532 442.801,272.032 444.5,267.5 Z"/></g>
<g><path style="opacity:0.996" fill="#fec007" d="M 333.5,639.5 C 332.591,659.575 322.258,671.408 302.5,675C 290.838,676.39 279.505,675.056 268.5,671C 252.397,664.41 236.064,658.41 219.5,653C 198.61,648.889 177.944,643.889 157.5,638C 141.493,631.671 136.993,620.504 144,604.5C 146.333,600.5 148.667,596.5 151,592.5C 152.851,585.196 152.851,577.863 151,570.5C 149,563.167 147,555.833 145,548.5C 143.079,539.838 146.246,534.005 154.5,531C 163.109,528.745 171.775,526.745 180.5,525C 188.046,522.463 194.213,517.963 199,511.5C 205.089,501.321 212.589,492.321 221.5,484.5C 226.834,481.725 232.501,480.891 238.5,482C 248.93,488.762 257.764,497.262 265,507.5C 271.667,517.5 278.333,527.5 285,537.5C 298.751,562.012 313.751,585.678 330,608.5C 331,611.167 332,613.833 333,616.5C 333.5,624.159 333.666,631.826 333.5,639.5 Z"/></g>
<g><path style="opacity:1" fill="#465a63" d="M 531.5,492.5 C 540.256,494.697 548.923,497.531 557.5,501C 560.204,502.86 561.871,505.36 562.5,508.5C 557.748,516.415 552.081,523.582 545.5,530C 535.825,536.369 525.825,537.036 515.5,532C 511.355,527.964 510.355,523.131 512.5,517.5C 511.892,514.855 511.392,512.188 511,509.5C 508.946,506.953 507.113,504.286 505.5,501.5C 512.979,495.339 521.646,492.339 531.5,492.5 Z"/></g>
<g><path style="opacity:0.997" fill="#fec007" d="M 505.5,501.5 C 507.113,504.286 508.946,506.953 511,509.5C 511.392,512.188 511.892,514.855 512.5,517.5C 510.355,523.131 511.355,527.964 515.5,532C 525.825,537.036 535.825,536.369 545.5,530C 552.081,523.582 557.748,516.415 562.5,508.5C 569.738,504.865 577.404,502.865 585.5,502.5C 589.48,504.751 592.313,508.084 594,512.5C 596.308,521.042 597.975,529.709 599,538.5C 604.91,554.405 616.076,564.905 632.5,570C 637.824,572.48 640.157,576.646 639.5,582.5C 639.756,586.123 638.923,589.456 637,592.5C 633.5,595.333 630,598.167 626.5,601C 592.741,618.871 561.407,640.205 532.5,665C 528.729,667.219 524.729,668.885 520.5,670C 510.561,671.562 500.561,671.895 490.5,671C 473.929,667.593 464.929,657.426 463.5,640.5C 463.334,632.826 463.5,625.159 464,617.5C 466.169,603.82 468.336,590.154 470.5,576.5C 472.665,553.524 474.165,530.524 475,507.5C 476.769,502.065 480.269,498.232 485.5,496C 493.089,494.729 499.755,496.562 505.5,501.5 Z"/></g>
</svg>
