<?xml version="1.0" encoding="UTF-8"?>
<!DOCTYPE svg PUBLIC "-//W3C//DTD SVG 1.1//EN" "http://www.w3.org/Graphics/SVG/1.1/DTD/svg11.dtd">
<svg xmlns="http://www.w3.org/2000/svg" version="1.1" width="254px" height="254px" style="shape-rendering:geometricPrecision; text-rendering:geometricPrecision; image-rendering:optimizeQuality; fill-rule:evenodd; clip-rule:evenodd" xmlns:xlink="http://www.w3.org/1999/xlink">
<g><path style="opacity:1" fill="#fefefe" d="M -0.5,-0.5 C 84.1667,-0.5 168.833,-0.5 253.5,-0.5C 253.5,84.1667 253.5,168.833 253.5,253.5C 168.833,253.5 84.1667,253.5 -0.5,253.5C -0.5,168.833 -0.5,84.1667 -0.5,-0.5 Z"/></g>
<g><path style="opacity:1" fill="#2f354f" d="M 8.5,91.5 C 16.3996,91.2342 19.2329,94.9009 17,102.5C 12.9247,106.41 8.92472,106.41 5,102.5C 3.51801,97.774 4.68468,94.1074 8.5,91.5 Z"/></g>
<g><path style="opacity:1" fill="#313651" d="M 31.5,91.5 C 40.5579,91.7086 43.2246,95.8753 39.5,104C 31.3979,106.895 27.5646,104.062 28,95.5C 29.3756,94.2949 30.5423,92.9616 31.5,91.5 Z"/></g>
<g><path style="opacity:1" fill="#303650" d="M 55.5,91.5 C 66.1578,92.3988 68.1578,96.8988 61.5,105C 53.6667,106.5 50.5,103.333 52,95.5C 53.3756,94.2949 54.5423,92.9616 55.5,91.5 Z"/></g>
<g><path style="opacity:1" fill="#2f344f" d="M 107.5,129.5 C 103.03,128.514 98.3633,128.181 93.5,128.5C 93.5,136.833 93.5,145.167 93.5,153.5C 90.5,153.5 87.5,153.5 84.5,153.5C 84.5,132.833 84.5,112.167 84.5,91.5C 94.8387,91.3335 105.172,91.5002 115.5,92C 129.775,96.844 133.942,106.344 128,120.5C 125.253,124.071 121.753,126.738 117.5,128.5C 121.1,136.866 125.1,145.033 129.5,153C 125.789,153.825 122.122,153.659 118.5,152.5C 114.549,144.933 110.883,137.266 107.5,129.5 Z"/></g>
<g><path style="opacity:1" fill="#2e344f" d="M 160.5,90.5 C 176.96,89.1438 187.126,96.4771 191,112.5C 192.715,123.733 191.049,134.4 186,144.5C 176.819,154.836 165.986,157.003 153.5,151C 147.512,146.195 143.679,140.028 142,132.5C 140.149,121.215 141.815,110.548 147,100.5C 150.802,96.0366 155.302,92.7033 160.5,90.5 Z"/></g>
<g><path style="opacity:1" fill="#303550" d="M 217.5,90.5 C 227.215,89.4603 235.549,92.2936 242.5,99C 241.024,101.643 239.024,103.81 236.5,105.5C 230.633,100.834 223.967,99.3337 216.5,101C 211.658,104.694 211.325,108.694 215.5,113C 222.753,116.195 230.086,119.195 237.5,122C 244.144,126.826 246.311,133.326 244,141.5C 241.656,148.508 236.823,152.674 229.5,154C 218.179,156.344 208.845,153.178 201.5,144.5C 203.167,142.167 205.167,140.167 207.5,138.5C 214.891,145.583 223.225,147.083 232.5,143C 236.769,138.291 236.436,133.958 231.5,130C 225.178,127.67 218.844,125.337 212.5,123C 204.432,118.488 201.599,111.655 204,102.5C 206.833,96.4933 211.333,92.4933 217.5,90.5 Z"/></g>
<g><path style="opacity:1" fill="#fdfdfd" d="M 94.5,100.5 C 101.508,100.334 108.508,100.5 115.5,101C 117.57,101.948 119.07,103.448 120,105.5C 120.667,108.833 120.667,112.167 120,115.5C 118.549,117.464 116.716,118.797 114.5,119.5C 107.833,119.5 101.167,119.5 94.5,119.5C 94.5,113.167 94.5,106.833 94.5,100.5 Z"/></g>
<g><path style="opacity:1" fill="#fcfcfc" d="M 160.5,100.5 C 172.056,98.5235 179.223,103.19 182,114.5C 183.526,123.321 182.192,131.654 178,139.5C 176.363,141.81 174.196,143.31 171.5,144C 161.614,146.642 155.114,143.142 152,133.5C 149.529,124.228 150.196,115.228 154,106.5C 156.063,104.266 158.229,102.266 160.5,100.5 Z"/></g>
<g><path style="opacity:1" fill="#2e344f" d="M 7.5,115.5 C 16.8504,115.365 19.517,119.532 15.5,128C 6.73542,130.908 3.23542,127.741 5,118.5C 6.04499,117.627 6.87833,116.627 7.5,115.5 Z"/></g>
<g><path style="opacity:1" fill="#313751" d="M 31.5,115.5 C 40.8504,115.365 43.517,119.532 39.5,128C 31.4468,130.951 27.6135,128.118 28,119.5C 29.3756,118.295 30.5423,116.962 31.5,115.5 Z"/></g>
<g><path style="opacity:1" fill="#313751" d="M 55.5,115.5 C 62.6545,115.153 65.8212,118.486 65,125.5C 60.5706,130.808 56.2373,130.808 52,125.5C 50.7549,121.235 51.9215,117.902 55.5,115.5 Z"/></g>
<g><path style="opacity:1" fill="#c3c4cc" d="M 94.5,100.5 C 94.5,106.833 94.5,113.167 94.5,119.5C 101.167,119.5 107.833,119.5 114.5,119.5C 107.687,120.491 100.687,120.825 93.5,120.5C 93.176,113.646 93.5093,106.979 94.5,100.5 Z"/></g>
<g><path style="opacity:1" fill="#b9bbc4" d="M 107.5,129.5 C 103.167,129.5 98.8333,129.5 94.5,129.5C 94.8257,137.684 94.4924,145.684 93.5,153.5C 93.5,145.167 93.5,136.833 93.5,128.5C 98.3633,128.181 103.03,128.514 107.5,129.5 Z"/></g>
<g><path style="opacity:1" fill="#2e344f" d="M 7.5,139.5 C 16.8504,139.365 19.517,143.532 15.5,152C 6.68246,154.852 3.18246,151.685 5,142.5C 6.04499,141.627 6.87833,140.627 7.5,139.5 Z"/></g>
<g><path style="opacity:1" fill="#313751" d="M 31.5,139.5 C 40.8504,139.365 43.517,143.532 39.5,152C 31.4468,154.951 27.6135,152.118 28,143.5C 29.3756,142.295 30.5423,140.962 31.5,139.5 Z"/></g>
<g><path style="opacity:1" fill="#313651" d="M 55.5,139.5 C 66.0999,140.254 68.0999,144.754 61.5,153C 53.685,154.518 50.5183,151.352 52,143.5C 52.6897,141.65 53.8564,140.316 55.5,139.5 Z"/></g>
</svg>
