<?xml version="1.0" encoding="UTF-8"?>
<!DOCTYPE svg PUBLIC "-//W3C//DTD SVG 1.1//EN" "http://www.w3.org/Graphics/SVG/1.1/DTD/svg11.dtd">
<svg xmlns="http://www.w3.org/2000/svg" version="1.1" width="1200px" height="1200px" style="shape-rendering:geometricPrecision; text-rendering:geometricPrecision; image-rendering:optimizeQuality; fill-rule:evenodd; clip-rule:evenodd" xmlns:xlink="http://www.w3.org/1999/xlink">
<g><path style="opacity:1" fill="#3b82b2" d="M 874.5,16.5 C 887.603,22.7862 895.769,33.1195 899,47.5C 899.5,59.1619 899.667,70.8286 899.5,82.5C 898.221,83.968 896.554,84.6347 894.5,84.5C 893.52,103.136 892.854,121.803 892.5,140.5C 881.5,140.5 870.5,140.5 859.5,140.5C 859.443,134.149 859.11,127.815 858.5,121.5C 860.167,121.5 861.833,121.5 863.5,121.5C 863.457,96.8875 863.457,72.2208 863.5,47.5C 867.167,47.5 870.833,47.5 874.5,47.5C 873.385,37.0075 873.385,26.6742 874.5,16.5 Z"/></g>
<g><path style="opacity:1" fill="#3b87bb" d="M 874.5,16.5 C 873.385,26.6742 873.385,37.0075 874.5,47.5C 870.833,47.5 867.167,47.5 863.5,47.5C 863.457,72.2208 863.457,96.8875 863.5,121.5C 861.833,121.5 860.167,121.5 858.5,121.5C 859.11,127.815 859.443,134.149 859.5,140.5C 858.5,140.5 857.5,140.5 856.5,140.5C 803.5,140.5 750.5,140.5 697.5,140.5C 741.862,99.4705 786.528,58.8039 831.5,18.5C 845.521,9.95848 859.854,9.29181 874.5,16.5 Z"/></g>
<g><path style="opacity:1" fill="#52b2f2" d="M 1136.5,118.5 C 1136.58,119.75 1137.24,120.583 1138.5,121C 1058.83,121.5 979.167,121.667 899.5,121.5C 899.5,108.5 899.5,95.5 899.5,82.5C 899.667,70.8286 899.5,59.1619 899,47.5C 895.769,33.1195 887.603,22.7862 874.5,16.5C 859.854,9.29181 845.521,9.95848 831.5,18.5C 844.677,7.439 860.01,2.10567 877.5,2.5C 884.626,2.30847 891.626,3.1418 898.5,5C 978.224,42.0288 1057.56,79.8621 1136.5,118.5 Z"/></g>
<g><path style="opacity:1" fill="#4db0f2" d="M 1136.5,118.5 C 1148.74,123.62 1160.41,129.787 1171.5,137C 1185.16,148.161 1193.83,162.328 1197.5,179.5C 1198.44,210.152 1198.77,240.819 1198.5,271.5C 1098.83,271.5 999.167,271.5 899.5,271.5C 899.5,221.5 899.5,171.5 899.5,121.5C 979.167,121.667 1058.83,121.5 1138.5,121C 1137.24,120.583 1136.58,119.75 1136.5,118.5 Z"/></g>
<g><path style="opacity:1" fill="#3484ba" d="M 697.5,140.5 C 750.5,140.5 803.5,140.5 856.5,140.5C 856.5,171.833 856.5,203.167 856.5,234.5C 855.5,234.5 854.5,234.5 853.5,234.5C 853.5,246.833 853.5,259.167 853.5,271.5C 753.5,271.5 653.5,271.5 553.5,271.5C 600.876,227.123 648.876,183.457 697.5,140.5 Z"/></g>
<g><path style="opacity:1" fill="#337daf" d="M 899.5,82.5 C 899.5,95.5 899.5,108.5 899.5,121.5C 899.5,171.5 899.5,221.5 899.5,271.5C 899.5,290.5 899.5,309.5 899.5,328.5C 884.988,338.923 870.655,349.59 856.5,360.5C 856.5,355.833 856.5,351.167 856.5,346.5C 858.167,346.5 859.833,346.5 861.5,346.5C 861.5,334.167 861.5,321.833 861.5,309.5C 865.5,309.5 869.5,309.5 873.5,309.5C 873.5,303.167 873.5,296.833 873.5,290.5C 874.833,290.5 876.167,290.5 877.5,290.5C 877.5,284.167 877.5,277.833 877.5,271.5C 869.5,271.5 861.5,271.5 853.5,271.5C 853.5,259.167 853.5,246.833 853.5,234.5C 854.5,234.5 855.5,234.5 856.5,234.5C 856.5,203.167 856.5,171.833 856.5,140.5C 857.5,140.5 858.5,140.5 859.5,140.5C 870.5,140.5 881.5,140.5 892.5,140.5C 892.854,121.803 893.52,103.136 894.5,84.5C 896.554,84.6347 898.221,83.968 899.5,82.5 Z"/></g>
<g><path style="opacity:1" fill="#2e80b8" d="M 553.5,271.5 C 653.5,271.5 753.5,271.5 853.5,271.5C 861.5,271.5 869.5,271.5 877.5,271.5C 877.5,277.833 877.5,284.167 877.5,290.5C 876.167,290.5 874.833,290.5 873.5,290.5C 873.5,296.833 873.5,303.167 873.5,309.5C 869.5,309.5 865.5,309.5 861.5,309.5C 861.5,321.833 861.5,334.167 861.5,346.5C 859.833,346.5 858.167,346.5 856.5,346.5C 856.5,351.167 856.5,355.833 856.5,360.5C 845.321,368.59 834.321,376.924 823.5,385.5C 691.961,384.169 560.294,384.169 428.5,385.5C 470.141,347.528 511.807,309.528 553.5,271.5 Z"/></g>
<g><path style="opacity:0.999" fill="#2c90d3" d="M 305.5,420.5 C 205.207,421.495 104.874,421.829 4.5,421.5C 2.4401,417.651 0.773429,413.651 -0.5,409.5C -0.5,402.833 -0.5,396.167 -0.5,389.5C 1.61514,381.6 5.11514,374.266 10,367.5C 34.5,345 59,322.5 83.5,300C 99.5675,288.791 116.901,286.458 135.5,293C 139.759,294.934 143.759,297.268 147.5,300C 200.351,340.03 253.018,380.197 305.5,420.5 Z"/></g>
<g><path style="opacity:1" fill="#47adf3" d="M 899.5,271.5 C 999.167,271.5 1098.83,271.5 1198.5,271.5C 1198.5,315.167 1198.5,358.833 1198.5,402.5C 1098.83,402.5 999.167,402.5 899.5,402.5C 899.5,377.833 899.5,353.167 899.5,328.5C 899.5,309.5 899.5,290.5 899.5,271.5 Z"/></g>
<g><path style="opacity:1" fill="#297db6" d="M 823.5,385.5 C 783.117,416.551 742.45,447.218 701.5,477.5C 634.166,477.667 566.833,477.5 499.5,477C 491.833,471.333 484.167,465.667 476.5,460C 473.167,459.667 469.833,459.333 466.5,459C 450.5,446.667 434.5,434.333 418.5,422C 413.167,421.667 407.833,421.333 402.5,421C 400.004,419.334 397.671,417.5 395.5,415.5C 406.474,405.528 417.474,395.528 428.5,385.5C 560.294,384.169 691.961,384.169 823.5,385.5 Z"/></g>
<g><path style="opacity:0.999" fill="#41abf2" d="M 899.5,402.5 C 999.167,402.5 1098.83,402.5 1198.5,402.5C 1198.5,446.167 1198.5,489.833 1198.5,533.5C 1099.17,533.5 999.833,533.5 900.5,533.5C 900.823,540.022 900.49,546.355 899.5,552.5C 899.5,502.5 899.5,452.5 899.5,402.5 Z"/></g>
<g><path style="opacity:0.999" fill="#278ed3" d="M 305.5,420.5 C 319.957,431.117 334.29,441.95 348.5,453C 349.745,453.791 351.078,454.291 352.5,454.5C 352.33,455.822 352.663,456.989 353.5,458C 370.416,470.611 387.082,483.445 403.5,496.5C 296.332,496.167 189.332,496.501 82.5,497.5C 61.7042,479.208 41.0376,460.708 20.5,442C 13.3998,436.417 8.06646,429.584 4.5,421.5C 104.874,421.829 205.207,421.495 305.5,420.5 Z"/></g>
<g><path style="opacity:0.999" fill="#228bd2" d="M 403.5,496.5 C 449.815,531.142 496.148,565.809 542.5,600.5C 545.473,602.147 548.14,604.147 550.5,606.5C 435.505,608.498 320.171,609.165 204.5,608.5C 200.543,605.878 196.876,602.878 193.5,599.5C 156.5,565.5 119.5,531.5 82.5,497.5C 189.332,496.501 296.332,496.167 403.5,496.5 Z"/></g>
<g><path style="opacity:1" fill="#2473a9" d="M 378.5,431.5 C 397.069,446.796 416.069,461.63 435.5,476C 439.833,477 444.167,478 448.5,479C 463.167,490.333 477.833,501.667 492.5,513C 495.139,514.946 498.139,515.946 501.5,516C 517.347,527.758 533.013,539.758 548.5,552C 551.289,552.241 553.956,552.908 556.5,554C 562.833,559 569.167,564 575.5,569C 577.134,569.494 578.801,569.66 580.5,569.5C 568.596,579.464 556.263,588.964 543.5,598C 542.748,598.671 542.414,599.504 542.5,600.5C 496.148,565.809 449.815,531.142 403.5,496.5C 387.082,483.445 370.416,470.611 353.5,458C 352.663,456.989 352.33,455.822 352.5,454.5C 361.167,446.833 369.833,439.167 378.5,431.5 Z"/></g>
<g><path style="opacity:1" fill="#257ab3" d="M 395.5,415.5 C 397.671,417.5 400.004,419.334 402.5,421C 407.833,421.333 413.167,421.667 418.5,422C 434.5,434.333 450.5,446.667 466.5,459C 469.833,459.333 473.167,459.667 476.5,460C 484.167,465.667 491.833,471.333 499.5,477C 566.833,477.5 634.166,477.667 701.5,477.5C 661.385,508.398 621.052,539.065 580.5,569.5C 578.801,569.66 577.134,569.494 575.5,569C 569.167,564 562.833,559 556.5,554C 553.956,552.908 551.289,552.241 548.5,552C 533.013,539.758 517.347,527.758 501.5,516C 498.139,515.946 495.139,514.946 492.5,513C 477.833,501.667 463.167,490.333 448.5,479C 444.167,478 439.833,477 435.5,476C 416.069,461.63 397.069,446.796 378.5,431.5C 383.934,425.944 389.601,420.611 395.5,415.5 Z"/></g>
<g><path style="opacity:1" fill="#3da9f2" d="M 1198.5,533.5 C 1198.5,552.5 1198.5,571.5 1198.5,590.5C 1098.83,590.5 999.167,590.5 899.5,590.5C 899.5,577.833 899.5,565.167 899.5,552.5C 900.49,546.355 900.823,540.022 900.5,533.5C 999.833,533.5 1099.17,533.5 1198.5,533.5 Z"/></g>
<g><path style="opacity:1" fill="#39a8f2" d="M 899.5,590.5 C 999.167,590.5 1098.83,590.5 1198.5,590.5C 1198.5,609.167 1198.5,627.833 1198.5,646.5C 1099.17,646.5 999.833,646.5 900.5,646.5C 900.823,639.978 900.49,633.645 899.5,627.5C 899.5,615.167 899.5,602.833 899.5,590.5 Z"/></g>
<g><path style="opacity:1" fill="#1b6da4" d="M 193.5,599.5 C 196.876,602.878 200.543,605.878 204.5,608.5C 218.474,621.472 232.474,634.472 246.5,647.5C 280.5,678.5 314.5,709.5 348.5,740.5C 350.262,741.262 351.262,742.596 351.5,744.5C 341.656,751.255 331.99,758.255 322.5,765.5C 322.586,764.504 322.252,763.671 321.5,763C 306.311,749.567 291.311,735.9 276.5,722C 277.167,721.667 277.833,721.333 278.5,721C 264.833,708.667 251.167,696.333 237.5,684C 241.833,683.667 246.167,683.333 250.5,683C 237.167,671 223.833,659 210.5,647C 211.167,646.667 211.833,646.333 212.5,646C 201.179,635.024 189.512,624.524 177.5,614.5C 182.833,609.5 188.167,604.5 193.5,599.5 Z"/></g>
<g><path style="opacity:1" fill="#1e89d1" d="M 550.5,606.5 C 567.475,618.814 584.141,631.481 600.5,644.5C 482.67,646.166 364.67,647.166 246.5,647.5C 232.474,634.472 218.474,621.472 204.5,608.5C 320.171,609.165 435.505,608.498 550.5,606.5 Z"/></g>
<g><path style="opacity:0.999" fill="#1a71ab" d="M 177.5,614.5 C 189.512,624.524 201.179,635.024 212.5,646C 211.833,646.333 211.167,646.667 210.5,647C 223.833,659 237.167,671 250.5,683C 246.167,683.333 241.833,683.667 237.5,684C 251.167,696.333 264.833,708.667 278.5,721C 277.833,721.333 277.167,721.667 276.5,722C 291.311,735.9 306.311,749.567 321.5,763C 322.252,763.671 322.586,764.504 322.5,765.5C 314.4,772.599 305.733,778.933 296.5,784.5C 280.467,769.132 264.133,754.132 247.5,739.5C 249.527,739.662 251.527,739.495 253.5,739C 240.2,727.368 227.2,715.368 214.5,703C 215.833,702.667 217.167,702.333 218.5,702C 198.8,683.298 178.8,664.965 158.5,647C 164.833,646.667 171.167,646.333 177.5,646C 172.866,642.368 168.533,638.368 164.5,634C 162.922,632.906 161.255,632.072 159.5,631.5C 164.869,625.13 170.869,619.463 177.5,614.5 Z"/></g>
<g><path style="opacity:0.999" fill="#35a5f1" d="M 899.5,627.5 C 900.49,633.645 900.823,639.978 900.5,646.5C 999.833,646.5 1099.17,646.5 1198.5,646.5C 1198.5,696.5 1198.5,746.5 1198.5,796.5C 1098.83,796.5 999.167,796.5 899.5,796.5C 899.5,740.167 899.5,683.833 899.5,627.5 Z"/></g>
<g><path style="opacity:0.997" fill="#1a74b1" d="M 159.5,631.5 C 161.255,632.072 162.922,632.906 164.5,634C 168.533,638.368 172.866,642.368 177.5,646C 171.167,646.333 164.833,646.667 158.5,647C 178.8,664.965 198.8,683.298 218.5,702C 217.167,702.333 215.833,702.667 214.5,703C 227.2,715.368 240.2,727.368 253.5,739C 251.527,739.495 249.527,739.662 247.5,739.5C 178.825,740.163 110.492,739.497 42.5,737.5C 80.9236,701.468 119.924,666.134 159.5,631.5 Z"/></g>
<g><path style="opacity:1" fill="#1a87d1" d="M 600.5,644.5 C 641.411,674.45 681.744,705.117 721.5,736.5C 721.414,737.496 721.748,738.329 722.5,739C 597.666,739.167 472.999,739.667 348.5,740.5C 314.5,709.5 280.5,678.5 246.5,647.5C 364.67,647.166 482.67,646.166 600.5,644.5 Z"/></g>
<g><path style="opacity:0.999" fill="#1571af" d="M 42.5,737.5 C 110.492,739.497 178.825,740.163 247.5,739.5C 264.133,754.132 280.467,769.132 296.5,784.5C 246.352,823.136 196.018,861.636 145.5,900C 129.922,910.285 113.256,912.285 95.5,906C 91.2406,904.066 87.2406,901.732 83.5,899C 59,876.5 34.5,854 10,831.5C 5.11514,824.734 1.61514,817.4 -0.5,809.5C -0.5,802.833 -0.5,796.167 -0.5,789.5C 1.61514,781.6 5.11514,774.266 10,767.5C 20.7033,757.294 31.5367,747.294 42.5,737.5 Z"/></g>
<g><path style="opacity:1" fill="#1584d0" d="M 721.5,736.5 C 756.679,762.59 791.679,788.923 826.5,815.5C 826.5,827.833 826.5,840.167 826.5,852.5C 708.332,852.167 590.332,852.5 472.5,853.5C 432.445,816.774 392.112,780.441 351.5,744.5C 351.262,742.596 350.262,741.262 348.5,740.5C 472.999,739.667 597.666,739.167 722.5,739C 721.748,738.329 721.414,737.496 721.5,736.5 Z"/></g>
<g><path style="opacity:1" fill="#2fa3f1" d="M 899.5,796.5 C 999.167,796.5 1098.83,796.5 1198.5,796.5C 1198.5,840.167 1198.5,883.833 1198.5,927.5C 1098.83,927.5 999.167,927.5 899.5,927.5C 899.5,908.5 899.5,889.5 899.5,870.5C 899.5,845.833 899.5,821.167 899.5,796.5 Z"/></g>
<g><path style="opacity:1" fill="#0f81ce" d="M 826.5,815.5 C 836.5,823.167 846.5,830.833 856.5,838.5C 856.5,880.5 856.5,922.5 856.5,964.5C 852.5,964.5 848.5,964.5 844.5,964.5C 761.167,964.5 677.833,964.5 594.5,964.5C 553.209,928.21 512.542,891.21 472.5,853.5C 590.332,852.5 708.332,852.167 826.5,852.5C 826.5,840.167 826.5,827.833 826.5,815.5 Z"/></g>
<g><path style="opacity:1" fill="#28a0f0" d="M 1197.5,179.5 C 1198.17,181.167 1198.83,182.833 1199.5,184.5C 1199.5,461.167 1199.5,737.833 1199.5,1014.5C 1196.36,1032.12 1188.02,1046.79 1174.5,1058.5C 1082.83,1058.5 991.167,1058.5 899.5,1058.5C 899.5,1014.83 899.5,971.167 899.5,927.5C 999.167,927.5 1098.83,927.5 1198.5,927.5C 1198.5,883.833 1198.5,840.167 1198.5,796.5C 1198.5,746.5 1198.5,696.5 1198.5,646.5C 1198.5,627.833 1198.5,609.167 1198.5,590.5C 1198.5,571.5 1198.5,552.5 1198.5,533.5C 1198.5,489.833 1198.5,446.167 1198.5,402.5C 1198.5,358.833 1198.5,315.167 1198.5,271.5C 1198.77,240.819 1198.44,210.152 1197.5,179.5 Z"/></g>
<g><path style="opacity:0.999" fill="#0a7ecd" d="M 594.5,964.5 C 677.833,964.5 761.167,964.5 844.5,964.5C 844.5,977.167 844.5,989.833 844.5,1002.5C 841.833,1002.5 839.167,1002.5 836.5,1002.5C 836.5,1014.83 836.5,1027.17 836.5,1039.5C 834.833,1039.5 833.167,1039.5 831.5,1039.5C 831.732,1052.19 831.398,1064.86 830.5,1077.5C 793.33,1077.17 756.33,1077.5 719.5,1078.5C 677.209,1041.21 635.542,1003.21 594.5,964.5 Z"/></g>
<g><path style="opacity:1" fill="#0c79c3" d="M 856.5,838.5 C 863.167,843.5 869.833,848.5 876.5,853.5C 877.485,884.123 877.818,914.79 877.5,945.5C 876.167,945.5 874.833,945.5 873.5,945.5C 873.5,970.5 873.5,995.5 873.5,1020.5C 871.167,1020.5 868.833,1020.5 866.5,1020.5C 866.5,1039.5 866.5,1058.5 866.5,1077.5C 864.833,1077.5 863.167,1077.5 861.5,1077.5C 858.833,1077.5 856.167,1077.5 853.5,1077.5C 853.5,1052.5 853.5,1027.5 853.5,1002.5C 854.5,1002.5 855.5,1002.5 856.5,1002.5C 856.5,989.833 856.5,977.167 856.5,964.5C 856.5,922.5 856.5,880.5 856.5,838.5 Z"/></g>
<g><path style="opacity:1" fill="#0b75bc" d="M 876.5,853.5 C 883.885,859.552 891.552,865.219 899.5,870.5C 899.5,889.5 899.5,908.5 899.5,927.5C 899.5,971.167 899.5,1014.83 899.5,1058.5C 899.5,1064.83 899.5,1071.17 899.5,1077.5C 888.5,1077.5 877.5,1077.5 866.5,1077.5C 866.5,1058.5 866.5,1039.5 866.5,1020.5C 868.833,1020.5 871.167,1020.5 873.5,1020.5C 873.5,995.5 873.5,970.5 873.5,945.5C 874.833,945.5 876.167,945.5 877.5,945.5C 877.818,914.79 877.485,884.123 876.5,853.5 Z"/></g>
<g><path style="opacity:1" fill="#239cee" d="M 899.5,1058.5 C 991.167,1058.5 1082.83,1058.5 1174.5,1058.5C 1172.62,1061.11 1170.29,1063.28 1167.5,1065C 1080.23,1108.13 992.564,1150.47 904.5,1192C 886.5,1198 868.5,1198 850.5,1192C 845.326,1190.25 840.659,1187.75 836.5,1184.5C 836.56,1183.96 836.893,1183.62 837.5,1183.5C 845.29,1187.34 853.29,1188.34 861.5,1186.5C 881.834,1183.34 894.334,1171.67 899,1151.5C 899.5,1126.84 899.667,1102.17 899.5,1077.5C 899.5,1071.17 899.5,1064.83 899.5,1058.5 Z"/></g>
<g><path style="opacity:0.999" fill="#057bca" d="M 844.5,964.5 C 848.5,964.5 852.5,964.5 856.5,964.5C 856.5,977.167 856.5,989.833 856.5,1002.5C 855.5,1002.5 854.5,1002.5 853.5,1002.5C 853.5,1027.5 853.5,1052.5 853.5,1077.5C 856.167,1077.5 858.833,1077.5 861.5,1077.5C 861.276,1089.86 860.609,1102.19 859.5,1114.5C 857.234,1114.14 855.401,1114.81 854,1116.5C 851.66,1139.68 849.826,1162.85 848.5,1186C 852.821,1186.5 857.154,1186.67 861.5,1186.5C 853.29,1188.34 845.29,1187.34 837.5,1183.5C 836.893,1183.62 836.56,1183.96 836.5,1184.5C 830.42,1180.59 824.754,1176.09 819.5,1171C 785.97,1140.3 752.637,1109.47 719.5,1078.5C 756.33,1077.5 793.33,1077.17 830.5,1077.5C 831.398,1064.86 831.732,1052.19 831.5,1039.5C 833.167,1039.5 834.833,1039.5 836.5,1039.5C 836.5,1027.17 836.5,1014.83 836.5,1002.5C 839.167,1002.5 841.833,1002.5 844.5,1002.5C 844.5,989.833 844.5,977.167 844.5,964.5 Z"/></g>
<g><path style="opacity:1" fill="#0371bb" d="M 861.5,1077.5 C 863.167,1077.5 864.833,1077.5 866.5,1077.5C 877.5,1077.5 888.5,1077.5 899.5,1077.5C 899.667,1102.17 899.5,1126.84 899,1151.5C 894.334,1171.67 881.834,1183.34 861.5,1186.5C 857.154,1186.67 852.821,1186.5 848.5,1186C 849.826,1162.85 851.66,1139.68 854,1116.5C 855.401,1114.81 857.234,1114.14 859.5,1114.5C 860.609,1102.19 861.276,1089.86 861.5,1077.5 Z"/></g>
</svg>
